<svg width="14" height="16" viewBox="0 0 14 16" fill="none" xmlns="http://www.w3.org/2000/svg">
<g id="Button Icon">
<path id="Vector" d="M13.3688 8.33757L8.36882 13.8376C8.27195 13.9469 8.13445 14.0001 8.00007 14.0001C7.87995 14.0001 7.75935 13.9571 7.66351 13.8702C7.45942 13.6846 7.44426 13.3683 7.62982 13.1643L11.8688 8.50007H0.500073C0.223698 8.50007 0.0281982 8.27648 0.0281982 8.0282C0.0281982 7.77992 0.223698 7.50007 0.500073 7.50007H11.8688L7.6282 2.83445C7.44264 2.63035 7.45779 2.31382 7.66189 2.12851C7.86648 1.94395 8.18251 1.9576 8.36845 2.1627L13.3684 7.6627C13.5438 7.8532 13.5438 8.14695 13.3688 8.33757Z" fill="#613FE7"/>
</g>
</svg>
