<svg width="12" height="19" viewBox="0 0 12 19" fill="none" xmlns="http://www.w3.org/2000/svg">
<g id="arrow-up-right" clip-path="url(#clip0_109_4736)">
<path id="Vector" d="M11.875 4.15255V12.4391C11.875 12.7673 11.6095 13.0328 11.2813 13.0328C10.9531 13.0328 10.6875 12.7673 10.6875 12.4391V5.58868L1.01312 15.2631C0.897705 15.3781 0.745557 15.4375 0.593779 15.4375C0.442002 15.4375 0.289928 15.3795 0.174072 15.2635C-0.0578613 15.0316 -0.0578613 14.6557 0.174072 14.4241L9.85591 4.74229L2.96841 4.72171C2.63888 4.72032 2.37392 4.45313 2.37503 4.12657C2.37619 3.79838 2.64177 3.53394 2.96878 3.53394L11.2813 3.55829C11.6116 3.56028 11.875 3.82599 11.875 4.15255Z" fill="#FEFEFE"/>
</g>
<defs>
<clipPath id="clip0_109_4736">
<rect width="11.875" height="19" fill="white"/>
</clipPath>
</defs>
</svg>
