<svg width="22" height="24" viewBox="0 0 22 24" fill="none" xmlns="http://www.w3.org/2000/svg">
<g id="bars" clip-path="url(#clip0_96_27731)">
<path id="Vector" d="M1.25 5.25H20.75C21.1646 5.25 21.5 4.91456 21.5 4.54219C21.5 4.16981 21.1625 3.75 20.75 3.75H1.25C0.835438 3.75 0.5 4.08562 0.5 4.45781C0.5 4.83 0.835438 5.25 1.25 5.25ZM20.75 11.25H1.25C0.835438 11.25 0.5 11.5875 0.5 12C0.5 12.4125 0.835438 12.75 1.25 12.75H20.75C21.1625 12.75 21.5 12.4125 21.5 12C21.5 11.5875 21.1625 11.25 20.75 11.25ZM20.75 18.75H1.25C0.835438 18.75 0.5 19.0854 0.5 19.4578C0.5 19.8302 0.835438 20.25 1.25 20.25H20.75C21.1646 20.25 21.5 19.9146 21.5 19.5422C21.5 19.1698 21.1625 18.75 20.75 18.75Z" fill="#FEFEFE"/>
</g>
<defs>
<clipPath id="clip0_96_27731">
<rect width="21" height="24" fill="white" transform="translate(0.5)"/>
</clipPath>
</defs>
</svg>
