<svg width="24" height="24" viewBox="0 0 24 24" fill="none" xmlns="http://www.w3.org/2000/svg">
<path d="M24 5.143C24 5.58164 23.8326 6.0205 23.4978 6.35478L9.78348 20.0691C9.45 20.4055 9.01071 20.5716 8.57143 20.5716C8.13214 20.5716 7.69393 20.4042 7.35964 20.0693L0.5025 13.2122C0.167679 12.8787 0 12.4394 0 12.0001C0 11.0209 0.800893 10.2859 1.71429 10.2859C2.15293 10.2859 2.59179 10.4533 2.92607 10.7881L8.57143 16.4359L21.075 3.93228C21.4071 3.59639 21.8464 3.42871 22.2857 3.42871C23.2018 3.42871 24 4.16264 24 5.143Z" fill="black"/>
</svg>
