<svg width="37" height="33" viewBox="0 0 37 33" fill="none" xmlns="http://www.w3.org/2000/svg">
<g id="rocket-launch" clip-path="url(#clip0_116_711)">
<path id="Vector" d="M26.4782 6.14795C24.3077 6.14795 22.604 7.71795 22.604 9.64795C22.604 11.5854 24.3703 13.1479 26.4782 13.1479C28.5946 13.1479 30.3524 11.5854 30.3524 9.64795C30.4157 7.7167 28.6579 6.14795 26.4782 6.14795ZM26.4782 11.1479C25.5466 11.1479 24.854 10.4761 24.854 9.64795C24.854 8.81982 25.6099 8.14795 26.4782 8.14795C27.4099 8.14795 28.1024 8.81982 28.1024 9.64795C28.1024 10.4761 27.4696 11.1479 26.4782 11.1479ZM36.1813 1.85107C36.1022 1.51514 35.7524 1.14795 35.3116 1.07795C33.0524 0.647949 31.2806 0.647949 29.5228 0.647949C22.2665 0.647949 17.9212 4.10107 14.6657 8.64795H7.34057C6.19799 8.64795 4.83604 9.3917 4.32627 10.3042L0.852832 16.4729C0.747363 16.6854 0.682324 16.9104 0.673535 17.1479C0.673535 17.9761 1.43291 18.6479 2.36455 18.6479H9.67002C13.3333 18.6479 16.4193 21.3354 16.4193 24.6479L16.4184 31.1479C16.4184 31.9761 17.1743 32.6479 18.0427 32.6479C18.3063 32.6401 18.5612 32.5901 18.7985 32.4886L25.7377 29.4023C26.7656 28.9492 27.6009 27.7411 27.6009 26.7254V20.1979C32.707 17.3073 36.5377 13.4229 36.5377 7.01045C36.6735 5.4292 36.6735 3.8592 36.1813 1.85107ZM3.2765 16.6479L6.34353 11.1948C6.47572 10.9667 7.0558 10.6479 7.34549 10.6479H13.3305C12.3454 12.3979 11.1009 14.6479 9.98291 16.6479L9.9917 16.6714C9.88447 16.6729 4.89228 16.6479 3.2765 16.6479ZM25.3532 26.7229C25.3532 26.9808 24.9929 27.4967 24.738 27.6061L18.6735 30.3354C18.6735 28.8429 18.6472 24.4604 18.6384 24.3586L18.6032 24.3667C20.7899 23.3742 23.3753 22.2648 25.3441 21.3898L25.3532 26.7229ZM18.2376 22.3104C17.3657 19.7854 15.1298 17.8042 12.2821 17.0292C15.9524 10.5292 19.236 2.64795 29.5298 2.64795C31.0148 2.64795 32.4302 2.64795 34.1261 2.90576C34.4249 4.42951 34.4162 5.68701 34.4162 7.00764C34.3532 16.0604 25.4235 19.0917 18.2376 22.3104ZM7.8665 20.6479C4.55479 20.6479 0.807129 23.1092 0.680566 30.6479L0.666504 32.6479H2.85322C14.9188 32.437 15.854 25.4479 12.254 22.2354C11.2767 21.2979 9.61025 20.6479 7.8665 20.6479ZM11.5931 27.4854C10.6881 29.4304 7.54166 30.5717 2.9165 30.6417C2.85322 30.4229 2.83705 22.6479 7.8665 22.6479C8.92963 22.6479 10.0546 23.0464 10.7402 23.6554C11.572 24.4604 12.2399 26.0729 11.5931 27.4854Z" fill="#FEFEFE"/>
</g>
<defs>
<clipPath id="clip0_116_711">
<rect width="36" height="32" fill="white" transform="translate(0.666504 0.647949)"/>
</clipPath>
</defs>
</svg>
