<svg width="36" height="33" viewBox="0 0 36 33" fill="none" xmlns="http://www.w3.org/2000/svg">
<g id="store" clip-path="url(#clip0_116_698)">
<path id="Vector" d="M31.0065 16.6502C30.4565 16.6502 30.0003 17.0939 30.0003 17.5939V22.6502H5.99464V17.5939C5.99464 17.0939 5.54776 16.6502 4.99714 16.6502C4.44651 16.6502 4.00026 17.0939 4.00026 17.5939L4.00089 29.6502C4.00089 31.307 5.34401 32.6502 6.94464 32.6502H28.9509C30.6078 32.6502 31.8946 31.307 31.8946 29.6502L31.8969 17.6502C32.0065 17.0939 31.5065 16.6502 31.0065 16.6502ZM30.0065 29.6502C30.0065 30.2015 29.5579 30.6502 29.0065 30.6502H7.00026C6.45026 30.6502 6.00026 30.2002 6.00026 29.6502V24.6502H30.0065V29.6502ZM34.2253 7.13766L30.6428 1.47016C30.3237 0.960786 29.7546 0.649536 29.1471 0.649536H6.85026C6.24295 0.649536 5.67401 0.960724 5.35464 1.47016L1.77089 7.13766C-0.0784862 10.0645 1.55776 14.1314 5.01464 14.6002C5.26339 14.6314 5.51901 14.6502 5.77276 14.6502C7.40651 14.6502 8.85339 13.9389 9.84714 12.8395C10.8378 13.9377 12.294 14.6502 13.919 14.6502C15.5528 14.6502 16.9996 13.9389 17.9934 12.8395C18.9878 13.9377 20.4378 14.6502 22.069 14.6502C23.7046 14.6502 25.1496 13.9389 26.1434 12.8395C27.1378 13.9377 28.5878 14.6502 30.2128 14.6502C30.4716 14.6502 30.7198 14.6331 30.9684 14.6006C34.4378 14.1377 36.0815 10.0689 34.2253 7.13766ZM32.7128 11.1127C32.4818 11.6064 31.9146 12.4589 30.714 12.6183C30.5503 12.6377 30.3878 12.6502 30.219 12.6502C29.2228 12.6502 28.3015 12.2398 27.6246 11.4945L26.1403 9.86079L24.6603 11.4983C23.9878 12.2439 23.069 12.6502 22.069 12.6502C21.0853 12.6502 20.1415 12.2303 19.4796 11.4983L17.994 9.85641L16.5128 11.5002C15.8378 12.2439 14.919 12.6502 13.919 12.6502C12.8815 12.6502 11.994 12.2314 11.3315 11.5002L9.84401 9.85641L8.36276 11.5002C7.69401 12.2439 6.76901 12.6502 5.77214 12.6502C5.60564 12.6502 5.43914 12.6388 5.28339 12.6184C4.08526 12.4564 3.51964 11.6064 3.28964 11.1127C2.84651 10.1627 2.91089 9.07516 3.46026 8.20641L6.97526 2.65016H29.0253L32.5384 8.20704C33.0878 9.08141 33.1565 10.1627 32.7128 11.1127Z" fill="#FEFEFE"/>
</g>
<defs>
<clipPath id="clip0_116_698">
<rect width="36" height="32" fill="white" transform="translate(0 0.647949)"/>
</clipPath>
</defs>
</svg>
