<svg width="15" height="18" viewBox="0 0 15 18" fill="none" xmlns="http://www.w3.org/2000/svg">
<path id="Icon" d="M10.5 4.5V3.9C10.5 3.05992 10.5 2.63988 10.3365 2.31901C10.1927 2.03677 9.96323 1.8073 9.68099 1.66349C9.36012 1.5 8.94008 1.5 8.1 1.5H6.9C6.05992 1.5 5.63988 1.5 5.31901 1.66349C5.03677 1.8073 4.8073 2.03677 4.66349 2.31901C4.5 2.63988 4.5 3.05992 4.5 3.9V4.5M6 8.625V12.375M9 8.625V12.375M0.75 4.5H14.25M12.75 4.5V12.9C12.75 14.1601 12.75 14.7902 12.5048 15.2715C12.289 15.6948 11.9448 16.039 11.5215 16.2548C11.0402 16.5 10.4101 16.5 9.15 16.5H5.85C4.58988 16.5 3.95982 16.5 3.47852 16.2548C3.05516 16.039 2.71095 15.6948 2.49524 15.2715C2.25 14.7902 2.25 14.1601 2.25 12.9V4.5" stroke="#B42318" stroke-width="1.2" stroke-linecap="round" stroke-linejoin="round"/>
</svg>
