<svg width="29" height="33" viewBox="0 0 29 33" fill="none" xmlns="http://www.w3.org/2000/svg">
<g id="user-tie" clip-path="url(#clip0_116_717)">
<path id="Vector" d="M20.8463 20.1854C20.7528 20.1551 20.6577 20.1406 20.5637 20.1406C20.1781 20.1406 19.8112 20.3825 19.65 20.7523L17.4412 25.8111L15.7213 20.6479H16.3338C16.8865 20.6479 17.3338 20.2007 17.3338 19.6479C17.3338 19.0952 16.8838 18.6479 16.3338 18.6479H12.3338C11.7838 18.6479 11.3338 19.0979 11.3338 19.6479C11.3338 20.1979 11.7838 20.6479 12.3338 20.6479H12.9457L11.2245 25.813L9.01573 20.7542C8.85254 20.3855 8.49004 20.1417 8.10254 20.1417C8.00854 20.1417 7.91361 20.156 7.81998 20.1864C3.44748 21.6064 0.28873 25.7232 0.33248 30.5801C0.34478 31.7354 1.34379 32.6479 2.50004 32.6479H26.165C27.3213 32.6479 28.3207 31.7373 28.3307 30.5805C28.3775 25.7229 25.2213 21.6042 20.8463 20.1854ZM2.50004 30.6479C2.40554 30.6479 2.34098 30.5814 2.33404 30.5626C2.30206 27.0064 4.36904 23.8439 7.56217 22.4251L11.1525 30.6479H2.50004ZM15.3338 30.5917H13.3338L12.42 28.4992L14.3338 22.8104L16.2475 28.5529L15.3338 30.5917ZM26.165 30.6479H17.515L21.105 22.4229C24.2988 23.8417 26.3657 27.0042 26.3338 30.5604C26.3275 30.5792 26.2588 30.6479 26.165 30.6479ZM14.3338 16.6479C18.7557 16.6479 22.3338 13.0698 22.3338 8.64795C22.3338 4.22607 18.7557 0.647949 14.3338 0.647949C9.91192 0.647949 6.33379 4.22607 6.33379 8.64795C6.33379 13.0698 9.91504 16.6479 14.3338 16.6479ZM14.3338 2.64795C17.6425 2.64795 20.3338 5.3392 20.3338 8.64795C20.3338 11.9561 17.6425 14.6479 14.3338 14.6479C11.025 14.6479 8.33379 11.9542 8.33379 8.64795C8.33379 5.3392 11.0275 2.64795 14.3338 2.64795Z" fill="#FEFEFE"/>
</g>
<defs>
<clipPath id="clip0_116_717">
<rect width="28" height="32" fill="white" transform="translate(0.333496 0.647949)"/>
</clipPath>
</defs>
</svg>
