<svg width="16" height="25" viewBox="0 0 16 25" fill="none" xmlns="http://www.w3.org/2000/svg">
<g id="xmark" clip-path="url(#clip0_104_934)">
<path id="Vector" d="M15.2796 19.7832C14.9865 20.0763 14.5123 20.0763 14.2189 19.7832L7.99995 13.5629L1.77964 19.7832C1.48653 20.0763 1.01229 20.0763 0.718855 19.7832C0.425746 19.4901 0.425746 19.0159 0.718855 18.7224L6.94057 12.5035L0.719793 6.2832C0.426684 5.99009 0.426684 5.51586 0.719793 5.22242C1.0129 4.92931 1.48714 4.92931 1.78057 5.22242L7.99995 11.4441L14.2203 5.22382C14.5134 4.93072 14.9876 4.93072 15.281 5.22382C15.5742 5.51693 15.5742 5.99117 15.281 6.28461L9.05932 12.5035L15.2796 18.7238C15.5749 19.0145 15.5749 19.4926 15.2796 19.7832Z" fill="#613FE7"/>
</g>
<defs>
<clipPath id="clip0_104_934">
<rect width="15" height="24" fill="white" transform="translate(0.5 0.5)"/>
</clipPath>
</defs>
</svg>
