<svg width="194" height="26" viewBox="0 0 194 26" fill="none" xmlns="http://www.w3.org/2000/svg">
<path d="M90.6059 19.208H79.5459V16.548L85.6499 8.79201H79.5459V5.68401H90.4939V8.23201L84.2779 16.1H90.6059V19.208Z" fill="#613FE7"/>
<path d="M74.4398 19.208H70.8838V5.68401H74.4398V7.50401C75.4198 6.32801 77.0718 5.34801 78.7518 5.34801V8.82001C78.4998 8.76401 78.1918 8.73601 77.7718 8.73601C76.5958 8.73601 75.0278 9.40801 74.4398 10.276V19.208Z" fill="#613FE7"/>
<path d="M62.6034 19.544C58.4874 19.544 55.3794 16.772 55.3794 12.432C55.3794 8.51201 58.2914 5.34801 62.3794 5.34801C66.4394 5.34801 69.1554 8.37201 69.1554 12.768V13.608H59.1034C59.3554 15.26 60.6994 16.632 62.9954 16.632C64.1434 16.632 65.7114 16.156 66.5794 15.316L68.1754 17.668C66.8314 18.9 64.7034 19.544 62.6034 19.544ZM65.7394 11.144C65.6274 9.85601 64.7314 8.26001 62.3794 8.26001C60.1674 8.26001 59.2154 9.80001 59.0754 11.144H65.7394Z" fill="#613FE7"/>
<path d="M51.7694 4.228C50.6214 4.228 49.6694 3.276 49.6694 2.1C49.6694 0.924 50.6214 0 51.7694 0C52.9454 0 53.8974 0.924 53.8974 2.1C53.8974 3.276 52.9454 4.228 51.7694 4.228ZM53.5614 19.208H50.0054V5.684H53.5614V19.208Z" fill="#613FE7"/>
<path d="M37.995 14.868C38.611 15.736 39.899 16.38 41.075 16.38C43.119 16.38 44.491 14.784 44.491 12.432C44.491 10.108 43.119 8.51201 41.075 8.51201C39.899 8.51201 38.611 9.18401 37.995 10.08V14.868ZM37.995 19.208H34.439V0.532013H37.995V7.42001C39.059 6.02001 40.571 5.34801 42.167 5.34801C45.611 5.34801 48.159 8.03601 48.159 12.432C48.159 16.968 45.583 19.544 42.167 19.544C40.543 19.544 39.059 18.816 37.995 17.472V19.208Z" fill="#613FE7"/>
<path d="M25.4457 19.544C20.9937 19.544 18.3057 16.268 18.3057 12.432C18.3057 8.59601 20.9937 5.34801 25.4457 5.34801C29.9257 5.34801 32.6137 8.59601 32.6137 12.432C32.6137 16.268 29.9257 19.544 25.4457 19.544ZM25.4457 16.38C27.6857 16.38 28.9177 14.56 28.9177 12.432C28.9177 10.332 27.6857 8.51201 25.4457 8.51201C23.2337 8.51201 22.0017 10.332 22.0017 12.432C22.0017 14.56 23.2337 16.38 25.4457 16.38Z" fill="#613FE7"/>
<path d="M7.392 19.208H0V0.532013H7.364C13.216 0.532013 17.276 4.25601 17.276 9.85601C17.276 15.512 13.216 19.208 7.392 19.208ZM7.364 15.708C11.06 15.708 13.216 13.048 13.216 9.85601C13.216 6.58001 11.2 4.03201 7.392 4.03201H3.976V15.708H7.364Z" fill="#613FE7"/>
<path d="M156.651 19.544C154.803 19.544 153.207 18.648 152.087 17.164V24.36H149.987V5.68401H152.087V7.70001C153.067 6.32801 154.747 5.34801 156.651 5.34801C160.207 5.34801 162.671 8.03601 162.671 12.432C162.671 16.8 160.207 19.544 156.651 19.544ZM156.119 17.668C158.835 17.668 160.459 15.428 160.459 12.432C160.459 9.43601 158.835 7.22401 156.119 7.22401C154.467 7.22401 152.815 8.20401 152.087 9.38001V15.484C152.815 16.66 154.467 17.668 156.119 17.668Z" fill="#613FE7"/>
<path d="M140.622 19.544C136.59 19.544 133.706 16.66 133.706 12.432C133.706 8.51201 136.506 5.34801 140.37 5.34801C144.458 5.34801 146.866 8.54001 146.866 12.6V13.132H135.946C136.114 15.68 137.878 17.808 140.79 17.808C142.358 17.808 143.898 17.192 144.99 16.072L145.998 17.444C144.626 18.788 142.806 19.544 140.622 19.544ZM144.794 11.564C144.766 9.57601 143.422 7.08401 140.342 7.08401C137.458 7.08401 136.03 9.52001 135.918 11.564H144.794Z" fill="#613FE7"/>
<path d="M130.581 19.208H128.481V0.532013H130.581V19.208Z" fill="#613FE7"/>
<path d="M126.278 19.208H123.59L118.746 13.132L116.478 15.344V19.208H114.378V0.532013H116.478V12.88L123.59 5.68401H126.25L120.258 11.816L126.278 19.208Z" fill="#613FE7"/>
<path d="M104.384 19.544C101.164 19.544 98.7558 18.312 97.2158 16.576L98.6158 14.784C99.8198 16.184 101.836 17.472 104.468 17.472C107.8 17.472 108.864 15.68 108.864 14.224C108.864 9.40802 97.8038 12.096 97.8038 5.43202C97.8038 2.35201 100.548 0.224014 104.244 0.224014C107.072 0.224014 109.284 1.20402 110.852 2.85601L109.452 4.56402C108.052 2.99601 106.092 2.32401 104.048 2.32401C101.836 2.32401 100.212 3.52802 100.212 5.29202C100.212 9.49202 111.272 7.08401 111.272 14.056C111.272 16.744 109.424 19.544 104.384 19.544Z" fill="#613FE7"/>
<path d="M186.802 20.508C185.775 20.508 184.969 20.1747 184.382 19.508C183.809 18.828 183.522 17.8813 183.522 16.668C183.522 15.9213 183.622 15.048 183.822 14.048C184.035 13.0347 184.302 11.968 184.622 10.848C184.955 9.71467 185.315 8.59467 185.702 7.488C186.089 6.38134 186.462 5.35467 186.822 4.408C187.195 3.448 187.522 2.648 187.802 2.008C187.962 1.648 188.189 1.468 188.482 1.468C188.882 1.468 189.082 1.71467 189.082 2.208C189.082 2.368 189.009 2.69467 188.862 3.188C188.715 3.68134 188.522 4.29467 188.282 5.028C188.042 5.748 187.782 6.548 187.502 7.428C187.222 8.308 186.935 9.21467 186.642 10.148C186.362 11.068 186.102 11.9813 185.862 12.888C185.622 13.7813 185.429 14.6213 185.282 15.408C185.135 16.1947 185.062 16.868 185.062 17.428C185.062 17.788 185.155 18.0747 185.342 18.288C185.542 18.488 185.809 18.588 186.142 18.588C186.755 18.588 187.369 18.468 187.982 18.228C188.609 17.9747 189.209 17.668 189.782 17.308C190.355 16.9347 190.875 16.568 191.342 16.208C191.822 15.8347 192.229 15.528 192.562 15.288C192.895 15.0347 193.129 14.908 193.262 14.908C193.555 14.908 193.702 15.068 193.702 15.388C193.702 15.4947 193.595 15.6947 193.382 15.988C193.169 16.268 192.882 16.6013 192.522 16.988C192.162 17.3747 191.742 17.7747 191.262 18.188C190.795 18.588 190.302 18.968 189.782 19.328C189.275 19.6747 188.762 19.9547 188.242 20.168C187.735 20.3947 187.255 20.508 186.802 20.508Z" fill="#613FE7"/>
<path d="M170.534 25.648C170.307 25.648 170.127 25.568 169.994 25.408C169.874 25.248 169.814 24.9413 169.814 24.488C169.814 23.8347 169.861 23.0747 169.954 22.208C170.047 21.3413 170.174 20.4213 170.334 19.448C170.507 18.4747 170.694 17.5013 170.894 16.528C171.107 15.5547 171.327 14.628 171.554 13.748C171.794 12.868 172.027 12.088 172.254 11.408C172.481 10.7147 172.687 10.168 172.874 9.76801C173.074 9.36801 173.247 9.16801 173.394 9.16801C173.647 9.16801 173.847 9.24134 173.994 9.38801C174.154 9.53467 174.234 9.75467 174.234 10.048C174.234 10.4213 174.121 11.028 173.894 11.868C173.667 12.6947 173.374 13.7747 173.014 15.108C173.347 14.4947 173.707 13.8547 174.094 13.188C174.481 12.5213 174.887 11.8747 175.314 11.248C175.741 10.608 176.167 10.0347 176.594 9.52801C177.034 9.02134 177.461 8.61467 177.874 8.30801C178.287 8.00134 178.687 7.84801 179.074 7.84801C179.487 7.84801 179.854 7.98134 180.174 8.24801C180.494 8.50134 180.741 8.84801 180.914 9.28801C181.101 9.71467 181.194 10.1947 181.194 10.728C181.194 11.8347 181.007 12.908 180.634 13.948C180.261 14.9747 179.741 15.9013 179.074 16.728C178.421 17.5413 177.647 18.188 176.754 18.668C175.874 19.148 174.921 19.388 173.894 19.388C173.507 19.388 173.161 19.368 172.854 19.328C172.547 19.288 172.281 19.2413 172.054 19.188C171.894 20.068 171.741 20.9747 171.594 21.908C171.447 22.8413 171.301 23.8347 171.154 24.888C171.114 25.168 171.047 25.3613 170.954 25.468C170.861 25.588 170.721 25.648 170.534 25.648ZM179.434 9.36801C179.154 9.36801 178.821 9.52801 178.434 9.84801C178.061 10.168 177.654 10.5947 177.214 11.128C176.787 11.648 176.354 12.228 175.914 12.868C175.474 13.4947 175.047 14.1347 174.634 14.788C174.221 15.4413 173.841 16.048 173.494 16.608C173.161 17.168 172.887 17.6347 172.674 18.008C173.714 17.9813 174.627 17.7747 175.414 17.388C176.201 16.988 176.874 16.4813 177.434 15.868C177.994 15.2413 178.447 14.568 178.794 13.848C179.154 13.1147 179.414 12.408 179.574 11.728C179.734 11.0347 179.814 10.4347 179.814 9.92801C179.814 9.55467 179.687 9.36801 179.434 9.36801Z" fill="#613FE7"/>
<path d="M165.672 20.008C165.378 20.008 165.092 19.9147 164.812 19.728C164.545 19.5413 164.412 19.2347 164.412 18.808C164.412 18.4613 164.498 18.1813 164.672 17.968C164.845 17.7547 165.045 17.6013 165.272 17.508C165.498 17.4013 165.698 17.348 165.872 17.348C166.045 17.348 166.238 17.388 166.452 17.468C166.678 17.548 166.872 17.688 167.032 17.888C167.192 18.0747 167.272 18.3547 167.272 18.728C167.272 19.1013 167.112 19.408 166.792 19.648C166.472 19.888 166.098 20.008 165.672 20.008Z" fill="#613FE7"/>
</svg>
