<svg width="132" height="43" viewBox="0 0 132 43" fill="none" xmlns="http://www.w3.org/2000/svg">
<g id="Group">
<path id="Vector" d="M43.8678 21.6479C43.8678 24.6515 43.3983 27.3735 42.3655 30.0017C41.3326 32.536 39.9242 34.7887 38.0463 36.6659C36.1685 38.5432 33.915 40.045 31.286 41.1713C28.6569 42.2038 25.7462 42.767 22.4599 42.767C19.2675 42.767 16.3568 42.2038 13.6339 41.1713C11.0048 40.1388 8.75137 38.637 6.87348 36.6659C4.9956 34.7887 3.49329 32.536 2.46046 30.0017C1.33373 27.3735 0.864258 24.6515 0.864258 21.6479C0.864258 18.6443 1.33373 15.9223 2.36656 13.2941C3.3994 10.7598 4.80781 8.50713 6.77959 6.62988C8.65747 4.75263 10.9109 3.25082 13.54 2.21834C16.2629 1.09198 19.1736 0.528809 22.366 0.528809C25.5584 0.528809 28.4691 1.09198 31.1921 2.12447C33.8211 3.25082 36.0746 4.65876 37.9524 6.62988C39.8303 8.50713 41.2387 10.7598 42.2716 13.2941C43.3044 15.9223 43.8678 18.6443 43.8678 21.6479ZM34.0089 21.6479C34.0089 19.5829 33.7272 17.7995 33.2577 16.11C32.6944 14.5143 31.9432 13.1064 31.0043 11.98C29.9714 10.8537 28.7508 9.91507 27.2485 9.3519C25.8401 8.78872 24.15 8.41327 22.366 8.41327C20.4881 8.41327 18.8919 8.69486 17.3896 9.3519C15.9812 9.91507 14.7606 10.8537 13.7278 11.98C12.6949 13.1064 11.9438 14.5143 11.4743 16.11C10.9109 17.7057 10.7231 19.5829 10.7231 21.6479C10.7231 23.7129 11.0048 25.5901 11.4743 27.1858C12.0377 28.7815 12.7888 30.1894 13.7278 31.3158C14.7606 32.4421 15.9812 33.2869 17.3896 33.9439C18.798 34.5071 20.4881 34.8825 22.366 34.8825C24.2439 34.8825 25.8401 34.6009 27.2485 33.9439C28.7508 33.3807 29.9714 32.4421 30.9104 31.3158C31.9432 30.1894 32.6944 28.7815 33.1638 27.1858C33.7272 25.5901 34.0089 23.7129 34.0089 21.6479Z" fill="white"/>
<g id="Group_2">
<path id="Vector_2" d="M118.889 17.706L101.237 20.8034C101.049 19.7709 101.143 18.7385 101.331 17.706C101.613 16.5796 102.082 15.5471 102.646 14.6085C103.303 13.6699 104.148 12.8251 105.181 12.0742C106.214 11.3233 107.434 10.854 108.749 10.6663C110.157 10.3847 111.472 10.3847 112.598 10.6663C113.725 10.9479 114.758 11.3233 115.509 11.9803C116.354 12.6374 117.011 13.3883 117.575 14.4208C118.232 15.3594 118.701 16.3919 118.889 17.706Z" fill="url(#paint0_linear_114_646)"/>
<path id="Vector_3" d="M131.565 26.3412C131.002 29.0632 129.969 31.5036 128.467 33.6624C126.964 35.8213 124.993 37.6985 122.645 39.2003C120.204 40.7021 117.481 41.7346 114.289 42.2978C111.096 42.861 108.185 42.861 105.369 42.2039C102.552 41.6408 100.111 40.5144 97.951 39.0126C95.7914 37.5108 93.9135 35.5397 92.5051 33.1931C91.3784 31.4097 90.5334 29.4386 89.97 27.2798L96.2609 26.1534C96.6365 27.5614 97.1998 28.8754 97.951 30.0018C98.9838 31.7852 100.298 33.1931 101.801 34.4133C102.364 34.8827 103.021 35.2581 103.679 35.5397C104.805 36.1029 106.026 36.4783 107.34 36.7599C108.843 37.0415 110.439 37.1354 112.129 37.0415C112.411 37.0415 112.692 37.0415 112.88 36.9476C113.256 36.9476 113.631 36.8538 114.007 36.7599C116.354 36.3845 118.42 35.5397 120.204 34.4133C121.988 33.287 123.49 31.8791 124.617 30.2834C124.993 29.7202 125.368 29.157 125.65 28.5939C125.65 28.5939 125.65 28.5 125.744 28.5L122.739 26.9043C121.8 26.435 120.579 26.7166 119.922 27.5614C119.359 28.4061 118.702 29.157 117.95 29.8141C116.824 30.8466 115.321 31.5036 113.631 31.7852C112.317 31.9729 111.096 32.0668 109.782 31.7852C108.467 31.5975 107.34 31.222 106.308 30.565C105.275 30.0018 104.336 29.157 103.585 28.2184C102.833 27.2798 102.364 26.1534 102.082 24.8394L125.65 20.7094L125.274 18.7383C124.899 16.861 124.335 14.9838 123.49 13.2942C122.645 11.5109 121.518 10.0091 120.11 8.78884C118.702 7.47476 117.011 6.63 115.04 5.97296C113.068 5.40979 110.814 5.31592 108.185 5.78524C106.026 6.16069 104.054 6.91159 102.27 8.03794C100.58 9.16429 99.1716 10.5722 98.0449 12.1679C96.9182 13.7636 96.167 15.6408 95.7914 17.6119C95.5097 18.8321 95.4158 20.1462 95.4158 21.4603L89.1249 22.9621C88.9372 20.8971 89.1249 18.926 89.5005 16.9549C90.0639 14.2329 91.0967 11.7924 92.599 9.6336C94.1013 7.47476 96.0731 5.59751 98.5144 4.09571C100.956 2.59391 103.679 1.56142 106.871 0.998241C110.063 0.435065 112.974 0.435065 115.791 1.0921C118.608 1.65528 121.049 2.78163 123.209 4.28343C125.368 5.78524 127.152 7.75635 128.654 10.1029C130.157 12.4495 131.096 15.0776 131.659 17.9874C132.128 20.8971 132.128 23.713 131.565 26.3412Z" fill="url(#paint1_linear_114_646)"/>
</g>
<path id="Vector_4" d="M54.478 0.622671C54.7597 0.622671 55.0413 0.716534 55.2291 0.810396C55.4169 0.904259 55.6986 1.09198 55.8864 1.27971C56.0742 1.46743 56.3559 1.74902 56.6375 2.03061L76.2614 27.3735C76.1675 26.5288 76.1675 25.7779 76.0736 25.027C76.0736 24.2761 75.9797 23.5252 75.9797 22.8681V0.528809H84.4302V42.767H79.4538C78.7027 42.767 78.0454 42.6731 77.5759 42.3915C77.1065 42.2038 76.5431 41.7345 76.0736 41.0775L56.6375 16.0161C56.7314 16.767 56.7314 17.5179 56.8253 18.175C56.8253 18.9259 56.9192 19.5829 56.9192 20.1461V42.767H48.4688V0.528809H53.4451C53.9146 0.528809 54.1963 0.528809 54.478 0.622671Z" fill="white"/>
</g>
<defs>
<linearGradient id="paint0_linear_114_646" x1="101.177" y1="15.5939" x2="118.929" y2="15.5939" gradientUnits="userSpaceOnUse">
<stop stop-color="#FC5026"/>
<stop offset="1" stop-color="#F16A0E"/>
</linearGradient>
<linearGradient id="paint1_linear_114_646" x1="89.0834" y1="21.648" x2="131.977" y2="21.648" gradientUnits="userSpaceOnUse">
<stop stop-color="#FC5026"/>
<stop offset="1" stop-color="#F16A0E"/>
</linearGradient>
</defs>
</svg>
