<svg width="230" height="27" viewBox="0 0 230 27" fill="none" xmlns="http://www.w3.org/2000/svg">
<g id="prestashop logo" clip-path="url(#clip0_114_634)">
<g id="Group">
<path id="Vector" d="M16.2748 1.93965C17.6878 2.65647 18.7874 3.67083 19.5672 4.97598C20.3469 6.28113 20.7334 7.80268 20.7334 9.55414C20.7334 11.3056 20.3469 12.8272 19.5672 14.1323C18.7874 15.4375 17.6944 16.4451 16.2748 17.1687C14.862 17.8854 13.2225 18.2439 11.3564 18.2439H7.46436V26.0004H0.953125V0.864424H11.3564C13.2225 0.864424 14.862 1.22283 16.2748 1.93965ZM10.75 12.8542C11.7897 12.8542 12.6094 12.5634 13.2092 11.9751C13.809 11.3868 14.1089 10.5821 14.1089 9.55414C14.1089 8.52626 13.809 7.71477 13.2092 7.1332C12.6094 6.55162 11.7897 6.25408 10.75 6.25408H7.4577V12.861H10.75V12.8542ZM38.9478 1.93965C40.3873 2.65647 41.5069 3.67083 42.3067 4.97598C43.1064 6.28113 43.5062 7.80268 43.5062 9.55414C43.5062 11.0621 43.173 12.4282 42.5133 13.6454C41.8535 14.8694 40.9537 15.8568 39.8208 16.6276L44.3127 26.0004H37.1683L33.5228 18.2439H30.024V26.0004H23.5127V0.864424H33.9493C35.8354 0.864424 37.5015 1.22283 38.9344 1.93965H38.9478ZM33.4295 12.8542C34.4892 12.8542 35.3289 12.5634 35.942 11.9751C36.5552 11.3868 36.8618 10.5821 36.8618 9.55414C36.8618 8.52626 36.5552 7.71477 35.942 7.1332C35.3289 6.55162 34.4892 6.25408 33.4295 6.25408H30.0306V12.861H33.4295V12.8542ZM64.4392 0.864424V6.46372H53.8626V10.7714H62.3199V16.0123H53.8626V20.3943H64.8324V25.9936H47.358V0.864424H64.4392ZM74.7293 20.2319C75.4824 20.8406 76.5087 21.1449 77.8083 21.1449C78.8479 21.1449 79.6812 20.942 80.3211 20.5363C80.9603 20.1305 81.2736 19.5287 81.2736 18.7442C81.2736 18.2438 81.0942 17.8448 80.7409 17.5608C80.3877 17.2767 79.841 17.0265 79.0945 16.8237L78.7924 16.7438C78.0358 16.5487 76.9169 16.292 75.4357 15.9783C73.7829 15.62 72.4167 15.1939 71.3303 14.707C70.244 14.2202 69.371 13.4763 68.7112 12.4822C68.0514 11.4881 67.7182 10.1695 67.7182 8.51265C67.7182 7.03168 68.138 5.68596 68.9711 4.48901C69.8108 3.29206 70.9638 2.35208 72.4366 1.66908C73.9095 0.98607 75.5557 0.647949 77.3751 0.647949C79.1945 0.647949 80.9203 0.992833 82.4132 1.68936C83.9061 2.38589 85.0928 3.34616 85.952 4.57692C86.8121 5.80768 87.2452 7.18046 87.2452 8.68847H80.914C80.8404 7.8026 80.5005 7.09254 79.888 6.55155C79.2744 6.01056 78.4348 5.74682 77.3751 5.74682C76.4554 5.74682 75.709 5.93617 75.1291 6.32163C74.5493 6.70709 74.2627 7.26837 74.2627 8.01224C74.2627 8.51265 74.436 8.90487 74.7759 9.18214C75.1158 9.4594 75.6556 9.69609 76.3887 9.89899L76.6849 9.97821C77.267 10.1292 78.064 10.3118 79.0803 10.5238L79.9608 10.7037C81.6339 11.0418 83.0265 11.4476 84.1333 11.9209C85.2393 12.3943 86.1322 13.1179 86.805 14.0781C87.4786 15.0384 87.8115 16.3165 87.8115 17.9192C87.8115 19.5219 87.3721 20.8879 86.5058 22.1524C85.6325 23.4238 84.4262 24.4111 82.8801 25.1347C81.3339 25.8515 79.6076 26.2099 77.695 26.2099C75.7822 26.2099 73.9229 25.838 72.3167 25.0942C70.7105 24.3503 69.451 23.3359 68.5312 22.0443C67.6115 20.7527 67.1517 19.3055 67.1517 17.7028L73.483 17.8448C73.5563 18.8254 73.9695 19.6233 74.7226 20.2319H74.7293ZM109.051 0.864424V6.46372H102.367V25.9936H95.8557V6.46372H89.1713V0.864424H109.051ZM123.62 0.864424L132.398 25.9936H125.393L123.833 21.2194H115.203L113.684 25.9936H106.926L115.763 0.864424H123.62ZM119.481 7.86354L116.862 16.0123H122.134L119.481 7.86354ZM140.562 20.2319C141.314 20.8406 142.341 21.1449 143.641 21.1449C144.68 21.1449 145.513 20.942 146.153 20.5363C146.793 20.1305 147.106 19.5287 147.106 18.7442C147.106 18.2438 146.926 17.8448 146.572 17.5608C146.22 17.2767 145.673 17.0265 144.927 16.8237L144.625 16.7438C143.868 16.5487 142.749 16.292 141.268 15.9783C139.615 15.62 138.249 15.1939 137.162 14.707C136.076 14.2202 135.203 13.4763 134.543 12.4822C133.883 11.4881 133.551 10.1695 133.551 8.51265C133.551 7.03168 133.97 5.68596 134.803 4.48901C135.643 3.29206 136.796 2.35208 138.269 1.66908C139.742 0.98607 141.388 0.647949 143.208 0.647949C145.026 0.647949 146.753 0.992833 148.246 1.68936C149.738 2.38589 150.925 3.34616 151.784 4.57692C152.644 5.80768 153.077 7.18046 153.077 8.68847H146.746C146.673 7.8026 146.333 7.09254 145.719 6.55155C145.107 6.01056 144.267 5.74682 143.208 5.74682C142.287 5.74682 141.542 5.93617 140.961 6.32163C140.381 6.70709 140.095 7.26837 140.095 8.01224C140.095 8.51265 140.268 8.90487 140.608 9.18214C140.948 9.4594 141.487 9.69609 142.221 9.89899L142.517 9.97821C143.099 10.1292 143.896 10.3118 144.913 10.5238L145.793 10.7037C147.466 11.0418 148.859 11.4476 149.965 11.9209C151.072 12.3943 151.964 13.1179 152.637 14.0781C153.311 15.0384 153.644 16.3165 153.644 17.9192C153.644 19.5219 153.204 20.8879 152.337 22.1524C151.465 23.4238 150.259 24.4111 148.712 25.1347C147.166 25.8515 145.44 26.2099 143.527 26.2099C141.614 26.2099 139.755 25.838 138.149 25.0942C136.543 24.3503 135.283 23.3359 134.364 22.0443C133.444 20.7527 132.984 19.3055 132.984 17.7028L139.315 17.8448C139.388 18.8254 139.802 19.6233 140.555 20.2319H140.562ZM163.621 0.864424V10.5212H171.865V0.864424H178.376V25.9936H171.865V16.1205H163.621V25.9936H157.11V0.864424H163.621ZM200.796 24.5396C198.896 25.6554 196.724 26.2099 194.271 26.2099C191.819 26.2099 189.639 25.6554 187.747 24.5396C185.847 23.4238 184.375 21.9023 183.321 19.9615C182.275 18.0206 181.748 15.8431 181.748 13.4289C181.748 11.0148 182.275 8.83729 183.321 6.89643C184.375 4.95561 185.847 3.43407 187.747 2.31827C189.646 1.20247 191.819 0.647949 194.271 0.647949C196.724 0.647949 198.903 1.20247 200.796 2.31827C202.688 3.43407 204.168 4.95561 205.221 6.89643C206.267 8.83729 206.794 11.0148 206.794 13.4289C206.794 15.8431 206.267 18.0206 205.221 19.9615C204.168 21.9023 202.695 23.4238 200.796 24.5396ZM194.271 20.7527C196.038 20.7527 197.464 20.0629 198.536 18.6901C199.609 17.3173 200.15 15.5591 200.15 13.4289C200.15 11.2987 199.616 9.54727 198.536 8.16777C197.464 6.78823 196.044 6.10523 194.271 6.10523C192.499 6.10523 191.079 6.795 190.006 8.16777C188.933 9.54056 188.393 11.2987 188.393 13.4289C188.393 15.5591 188.926 17.3106 190.006 18.6901C191.086 20.0696 192.499 20.7527 194.271 20.7527ZM225.495 1.93965C226.907 2.65647 228.007 3.67083 228.787 4.97598C229.566 6.28113 229.953 7.80268 229.953 9.55414C229.953 11.3056 229.566 12.8272 228.787 14.1323C228.007 15.4375 226.914 16.4451 225.495 17.1687C224.082 17.8854 222.442 18.2439 220.576 18.2439H216.684V26.0004H210.172V0.864424H220.576C222.442 0.864424 224.082 1.22283 225.495 1.93965ZM219.977 12.8542C221.016 12.8542 221.835 12.5634 222.435 11.9751C223.035 11.3868 223.335 10.5821 223.335 9.55414C223.335 8.52626 223.035 7.71477 222.435 7.1332C221.835 6.55162 221.016 6.25408 219.977 6.25408H216.684V12.861H219.977V12.8542Z" fill="white"/>
</g>
</g>
<defs>
<clipPath id="clip0_114_634">
<rect width="229" height="26" fill="white" transform="translate(0.953125 0.647949)"/>
</clipPath>
</defs>
</svg>
