<svg width="95" height="29" viewBox="0 0 95 29" fill="none" xmlns="http://www.w3.org/2000/svg">
<g id="SaaS">
<path id="Vector" d="M83.9064 28.9673C78.5443 28.9673 74.7202 27.1799 72.1016 24.5612L75.3437 19.9474C77.2973 21.9841 80.3317 23.7299 84.1558 23.7299C87.4395 23.7299 88.9775 22.2751 88.9775 20.654C88.9775 15.8323 73.016 19.1992 73.016 8.76607C73.016 4.15222 77.0064 0.328125 83.5323 0.328125C87.9383 0.328125 91.5961 1.65824 94.3395 4.19378L91.0558 8.5998C88.8112 6.52149 85.8184 5.56547 82.9919 5.56547C80.4979 5.56547 79.0847 6.64619 79.0847 8.30884C79.0847 12.6733 95.0046 9.72209 95.0046 20.0721C95.0046 25.1432 91.3467 28.9673 83.9064 28.9673Z" fill="white"/>
<path id="Vector_2" d="M68.6378 28.4688H63.3173V26.349C61.9456 28.0116 59.5763 28.9676 56.9577 28.9676C53.7571 28.9676 50.0161 26.8062 50.0161 22.317C50.0161 17.5785 53.7571 15.8327 56.9577 15.8327C59.6595 15.8327 61.9872 16.7056 63.3173 18.2851V15.7496C63.3173 13.7128 61.5715 12.3827 58.9113 12.3827C56.7914 12.3827 54.7962 13.214 53.1336 14.752L51.0553 11.0526C53.5077 8.84958 56.6667 7.89355 59.8257 7.89355C64.4396 7.89355 68.6378 9.72247 68.6378 15.5002V28.4688ZM59.0776 25.3929C60.7818 25.3929 62.4444 24.811 63.3173 23.6472V21.1532C62.4444 19.9893 60.7818 19.3658 59.0776 19.3658C56.9992 19.3658 55.295 20.4881 55.295 22.4002C55.295 24.3122 56.9992 25.3929 59.0776 25.3929Z" fill="white"/>
<path id="Vector_3" d="M46.0123 28.4688H40.6918V26.349C39.3201 28.0116 36.9509 28.9676 34.3322 28.9676C31.1316 28.9676 27.3906 26.8062 27.3906 22.317C27.3906 17.5785 31.1316 15.8327 34.3322 15.8327C37.034 15.8327 39.3617 16.7056 40.6918 18.2851V15.7496C40.6918 13.7128 38.946 12.3827 36.2858 12.3827C34.1659 12.3827 32.1707 13.214 30.5081 14.752L28.4298 11.0526C30.8822 8.84958 34.0412 7.89355 37.2003 7.89355C41.8141 7.89355 46.0123 9.72247 46.0123 15.5002V28.4688ZM36.4521 25.3929C38.1563 25.3929 39.8189 24.811 40.6918 23.6472V21.1532C39.8189 19.9893 38.1563 19.3658 36.4521 19.3658C34.3738 19.3658 32.6695 20.4881 32.6695 22.4002C32.6695 24.3122 34.3738 25.3929 36.4521 25.3929Z" fill="white"/>
<path id="Vector_4" d="M12.7115 28.9673C7.3495 28.9673 3.52541 27.1799 0.906738 24.5612L4.1489 19.9474C6.10252 21.9841 9.13685 23.7299 12.9609 23.7299C16.2447 23.7299 17.7826 22.2751 17.7826 20.654C17.7826 15.8323 1.8212 19.1992 1.8212 8.76607C1.8212 4.15222 5.81155 0.328125 12.3375 0.328125C16.7435 0.328125 20.4013 1.65824 23.1447 4.19378L19.8609 8.5998C17.6164 6.52149 14.6236 5.56547 11.7971 5.56547C9.30312 5.56547 7.88986 6.64619 7.88986 8.30884C7.88986 12.6733 23.8097 9.72209 23.8097 20.0721C23.8097 25.1432 20.1519 28.9673 12.7115 28.9673Z" fill="white"/>
</g>
</svg>
