<svg width="206" height="70" viewBox="0 0 206 70" fill="none" xmlns="http://www.w3.org/2000/svg">
<g id="shopify logo">
<path id="Vector" d="M38.2774 21.1955C37.9336 21.1284 37.1134 19.3413 37.0284 19.3615C37.0284 19.3615 16.9371 25.1836 16.6661 25.506C16.3692 25.8598 7.8623 55.7639 7.8623 55.7639L39.0383 61.5712L38.2774 21.1955Z" fill="url(#paint0_linear_114_582)"/>
<path id="Vector_2" d="M46.9844 20.4634C46.9844 20.4634 46.9388 20.2185 46.7996 20.1291C46.7106 20.0739 46.6112 20.0376 46.5074 20.0223L42.1073 19.6965L38.869 16.4979C38.7485 16.4043 38.6056 16.3498 38.4604 16.3218L39.0382 61.5722L55.9302 57.9376L46.9844 20.4634Z" fill="url(#paint1_linear_114_582)"/>
<path id="Vector_3" d="M39.04 61.5674L56.9427 61.9095L63.9721 57.9368L55.9682 57.9312L39.04 61.5674Z" fill="url(#paint2_linear_114_582)"/>
<path id="Vector_4" opacity="0.3" d="M39.0852 22.4336C39.7529 22.662 40.4128 22.2272 40.5579 21.4629C40.7034 20.6995 40.28 19.8948 39.6119 19.667C38.9435 19.4382 38.284 19.8724 38.1389 20.6371C37.9937 21.4014 38.4171 22.2064 39.0852 22.4336Z" fill="white"/>
<path id="Vector_5" opacity="0.62" d="M25.767 25.0068C25.7223 25.0068 25.6767 25.0037 25.6301 24.9971C25.1031 24.9236 24.6625 24.4501 24.6458 23.9394C24.6293 23.4394 24.3228 11.6634 31.2691 8.98464C33.0223 8.30851 34.6149 8.46037 36.0017 9.43677C37.6694 10.6101 38.8851 12.9268 39.6159 16.3226C40.1322 18.7234 40.2159 20.7918 40.2197 20.8785C40.239 21.3898 39.8273 21.7471 39.3006 21.6762C38.7735 21.6053 38.3305 21.1334 38.3108 20.6223C38.2278 18.489 37.4849 12.5834 35.0763 10.8895C34.3046 10.3473 33.3713 10.2991 32.2224 10.7421C26.2681 13.038 26.5508 24.0941 26.5546 24.2056C26.5692 24.6713 26.2266 25.0068 25.767 25.0068Z" fill="#595961"/>
<path id="Vector_6" opacity="0.62" d="M25.767 25.0068C25.7223 25.0068 25.6767 25.0037 25.6301 24.9971C25.1031 24.9236 24.6625 24.4501 24.6458 23.9394C24.6293 23.4394 24.3228 11.6634 31.2691 8.98464C33.0223 8.30851 34.6149 8.46037 36.0017 9.43677C37.6694 10.6101 38.8851 12.9268 39.6159 16.3226C40.1322 18.7234 40.2159 20.7918 40.2197 20.8785C40.239 21.3898 39.8273 21.7471 39.3006 21.6762C38.7735 21.6053 38.3305 21.1334 38.3108 20.6223C38.2278 18.489 37.4849 12.5834 35.0763 10.8895C34.3046 10.3473 33.3713 10.2991 32.2224 10.7421C26.2681 13.038 26.5508 24.0941 26.5546 24.2056C26.5692 24.6713 26.2266 25.0068 25.767 25.0068Z" fill="#595961"/>
<path id="Vector_7" opacity="0.46" d="M35.669 9.4753C34.4089 8.58869 32.9172 8.45227 31.2885 9.08051C28.4666 10.1688 26.458 13.0671 25.4803 17.4626C24.7561 20.7185 24.8404 23.6329 24.8442 23.7555C24.8493 23.9102 24.9161 24.0639 25.0324 24.1887C25.1491 24.3134 25.3006 24.3944 25.4587 24.4168C25.4879 24.4209 25.5167 24.4231 25.5449 24.4231C25.8349 24.4231 26.0466 24.2076 26.0374 23.9221C26.0336 23.8087 25.7411 12.5482 31.8843 10.1792C33.1279 9.69994 34.2137 9.76673 35.0906 10.384C37.6501 12.1843 38.4262 18.2509 38.5096 20.4368C38.522 20.756 38.7993 21.0515 39.1292 21.096C39.4607 21.1391 39.7145 20.9104 39.7025 20.5972C39.6885 20.2491 39.3349 12.0548 35.669 9.4753Z" fill="#B2B2C2"/>
<path id="Vector_8" opacity="0.46" d="M25.4825 24.0721C25.4653 24.0722 25.4481 24.071 25.4311 24.0683C25.2334 24.0409 25.0679 23.8632 25.0616 23.6717C25.0578 23.5507 24.9725 20.6706 25.6929 17.4317C26.6567 13.0998 28.6251 10.2475 31.3868 9.18292C32.946 8.58145 34.3408 8.70149 35.5324 9.53989C39.082 12.0374 39.4293 20.1051 39.4423 20.4476C39.4496 20.6391 39.2956 20.7724 39.0978 20.7466C38.9007 20.7201 38.7343 20.543 38.727 20.3515C38.7235 20.2718 38.3828 12.3339 35.1851 10.085C34.2286 9.41197 33.0712 9.33037 31.7439 9.84204C25.4765 12.2586 25.7737 23.6565 25.7772 23.7712C25.7832 23.9461 25.6549 24.0721 25.4825 24.0721Z" fill="#B2B2C2"/>
<path id="Vector_9" opacity="0.62" d="M28.0373 15.0381C28.3045 14.5702 28.5457 14.088 28.7596 13.5938C28.661 13.7579 28.0376 15.4004 26.0882 15.1486C26.0879 15.1483 27.2428 15.4936 28.0373 15.0381ZM27.3388 17.0743C27.5402 16.5668 27.7141 16.0489 27.8598 15.5229C27.7844 15.7016 27.4703 17.4067 25.4592 17.42C25.4592 17.42 26.6242 17.6314 27.3388 17.0743ZM26.8875 19.1308C27.0344 18.5974 27.1532 18.0567 27.2434 17.511C27.1873 17.6991 27.1461 19.4285 25.0823 19.6595C25.0823 19.6595 26.2435 19.7628 26.8875 19.1308ZM38.4609 13.0159C38.208 12.452 37.9313 11.8989 37.6315 11.3581C37.7181 11.5597 38.6802 13.3335 37.6141 14.6218C37.6144 14.6215 38.4505 13.9813 38.4609 13.0159ZM36.7213 10.1633C36.2244 9.76818 35.7118 9.39284 35.1849 9.0382C35.3608 9.1825 37.0611 10.347 36.9631 12.1211C36.9628 12.1208 37.243 11.078 36.7213 10.1633ZM39.2928 15.9017C39.1473 15.3181 38.976 14.7411 38.7794 14.1726C38.827 14.3802 39.4526 16.2444 38.1148 17.2631C38.1152 17.2631 39.091 16.815 39.2928 15.9017ZM39.9717 18.846C39.8999 18.2613 39.8009 17.6802 39.6751 17.1046C39.6966 17.3119 40.089 19.1982 38.6007 20.0199C38.6007 20.0199 39.6481 19.7067 39.9717 18.846ZM26.5741 21.4462C26.6527 20.8911 26.7005 20.3274 26.723 19.7625C26.6913 19.9594 26.7123 21.7547 24.8833 22.1926C24.8833 22.1926 26.0249 22.1624 26.5741 21.4462ZM28.9599 13.3137C29.3265 12.926 29.671 12.5182 29.9918 12.0922C29.8577 12.228 28.8151 13.5062 26.9585 13.0317C26.9585 13.0317 28.0598 13.5865 28.9599 13.3137ZM30.1369 11.8817C30.5772 11.5756 31.0001 11.2456 31.4037 10.893C31.243 10.9995 29.955 12.0405 28.1549 11.2686C28.1549 11.2686 29.1735 11.9876 30.1369 11.8817ZM31.8594 10.8291C32.3908 10.6747 32.9137 10.4926 33.426 10.2837C33.2326 10.3357 31.6296 10.9229 30.0377 9.71718C30.0377 9.71749 30.856 10.6564 31.8594 10.8291ZM33.3993 10.2635C33.851 10.3268 34.301 10.3678 34.7456 10.3895C34.5843 10.364 33.1981 10.2541 32.3877 8.99756C32.3877 8.99724 32.7031 9.84793 33.3993 10.2635ZM35.2334 10.9513C35.565 11.302 35.9105 11.6395 36.2691 11.963C36.1525 11.8357 35.0717 10.8051 35.306 9.49946C35.306 9.49978 34.9523 10.2213 35.2334 10.9513Z" fill="#595961"/>
<path id="Vector_10" opacity="0.74" d="M39.0669 20.2571C39.0542 19.9188 38.7103 11.9456 35.2489 9.50984C34.5944 9.04921 33.8658 8.81543 33.0837 8.81543C32.5157 8.81543 31.9082 8.93862 31.2791 9.18122C28.5634 10.2282 26.6241 13.0462 25.6715 17.3298C24.9571 20.5413 25.0398 23.4094 25.044 23.5301C25.0471 23.6255 25.1298 23.7144 25.2287 23.7283C25.2373 23.7295 25.246 23.7301 25.2547 23.7301C25.2746 23.7307 25.2944 23.7272 25.3128 23.7198C25.3312 23.7124 25.3479 23.7013 25.3618 23.6871C25.3756 23.6729 25.3864 23.6561 25.3933 23.6375C25.4002 23.619 25.4032 23.5993 25.4021 23.5795C25.3983 23.4636 25.1004 11.962 31.4579 9.51047C32.8365 8.97863 34.0668 9.07284 35.0752 9.78206C38.363 12.095 38.7059 20.128 38.709 20.2093C38.7125 20.3047 38.7959 20.3933 38.8944 20.4068C38.9021 20.4074 38.9103 20.4081 38.9185 20.4081C38.9385 20.4088 38.9584 20.4054 38.977 20.398C38.9956 20.3906 39.0124 20.3795 39.0263 20.3653C39.0403 20.3511 39.0511 20.3341 39.0581 20.3155C39.0651 20.2968 39.0681 20.277 39.0669 20.2571Z" fill="url(#paint3_linear_114_582)"/>
<path id="Vector_11" d="M39.6153 16.3225C38.8845 12.9267 37.6688 10.6097 36.0011 9.43668C35.0966 8.80024 34.1044 8.51668 33.0376 8.5819C33.8825 8.63514 34.6774 8.91839 35.4136 9.43668C37.0812 10.61 38.2973 12.9267 39.0274 16.3225C39.5437 18.7233 39.6277 20.7917 39.6312 20.8784C39.6448 21.2436 39.4385 21.529 39.1279 21.6374C39.184 21.6547 39.2414 21.6683 39.3 21.6761C39.8267 21.747 40.2384 21.3897 40.2191 20.8784C40.2156 20.7917 40.1319 18.7233 39.6153 16.3225Z" fill="url(#paint4_linear_114_582)"/>
<path id="Vector_12" d="M31.6345 10.742C25.6802 13.0379 25.9625 24.094 25.9663 24.2055C25.9777 24.5685 25.7721 24.8514 25.4634 24.9591C25.5176 24.9758 25.573 24.9891 25.6298 24.9969C25.6764 25.0036 25.722 25.0067 25.7667 25.0067C26.2262 25.0067 26.5688 24.6712 26.5542 24.2055C26.5504 24.094 26.268 13.0379 32.2221 10.742C32.6239 10.587 32.9992 10.4934 33.3506 10.4591C32.8382 10.403 32.269 10.4972 31.6345 10.742Z" fill="url(#paint5_linear_114_582)"/>
<path id="Vector_13" d="M25.767 25.0068C25.7223 25.0068 25.6767 25.0037 25.6301 24.9971C25.1031 24.9236 24.6625 24.4501 24.6458 23.9394C24.6293 23.4394 24.3228 11.6634 31.2691 8.98464C33.0223 8.30851 34.6149 8.46037 36.0017 9.43677C37.6694 10.6101 38.8851 12.9268 39.6159 16.3226C40.1322 18.7234 40.2159 20.7918 40.2197 20.8785C40.239 21.3898 39.8273 21.7471 39.3006 21.6762C38.7735 21.6053 38.3305 21.1334 38.3108 20.6223C38.2278 18.489 37.4849 12.5834 35.0763 10.8895C34.3046 10.3473 33.3713 10.2991 32.2224 10.7421C26.2681 13.038 26.5508 24.0941 26.5546 24.2056C26.5692 24.6713 26.2266 25.0068 25.767 25.0068Z" fill="url(#paint6_linear_114_582)"/>
<path id="Vector_14" d="M40.6585 13.467L13.7926 21.7375C13.7926 21.7375 12.6399 22.063 12.369 22.3856C12.072 22.7395 12.0149 23.6948 12.0149 23.6948L7.8623 55.539L39.0383 61.3461L41.4387 13.4402C41.0949 13.3731 40.7437 13.4468 40.6585 13.467Z" fill="url(#paint7_linear_114_582)"/>
<path id="Vector_15" d="M49.9627 17.5833C49.9627 17.5833 49.9174 17.3385 49.7777 17.249C49.6888 17.1938 49.5894 17.1575 49.4858 17.1422L45.0856 16.8161L41.8473 13.6175C41.7269 13.5276 41.5868 13.4673 41.4385 13.4414L39.0381 61.3469L55.9301 57.7123L49.9627 17.5833Z" fill="url(#paint8_linear_114_582)"/>
<path id="Vector_16" opacity="0.47" d="M29.2633 39.7589C28.7854 39.119 28.2295 38.5573 27.6417 38.0592C27.0626 37.5686 26.4538 37.141 25.858 36.7614C25.433 36.4974 25.0647 36.2434 24.7523 35.9939C24.4423 35.7469 24.1866 35.5033 23.985 35.2598C23.7844 35.0175 23.637 34.7739 23.5426 34.5244C23.4488 34.2786 23.4065 34.0164 23.4183 33.7537C23.4339 33.3939 23.5144 33.0685 23.6519 32.7808C23.7901 32.4927 23.9883 32.2371 24.2335 32.0309C24.4826 31.8199 24.7846 31.6503 25.1326 31.5268C25.4837 31.4021 25.8827 31.3246 26.3229 31.2987C26.7842 31.2723 27.2468 31.283 27.7063 31.3306C28.1309 31.3746 28.5519 31.4476 28.9664 31.5489C29.3622 31.6456 29.7276 31.7609 30.056 31.8819C30.352 31.991 30.6425 32.1142 30.9266 32.2512L33.0059 26.0916C32.6966 25.9344 32.3217 25.7904 31.8884 25.6685C31.4145 25.5376 30.9314 25.4419 30.4433 25.3821C29.8791 25.3121 29.3109 25.2789 28.7423 25.2825C28.1446 25.2853 27.5127 25.3257 26.8544 25.4117C25.4349 25.5966 24.1536 25.9867 23.0336 26.5428C21.9443 27.0841 21.0002 27.786 20.2231 28.6191C19.4552 29.4426 18.846 30.3992 18.4255 31.4415C18.0012 32.4875 17.7479 33.6495 17.6928 34.9097C17.6598 35.6637 17.7362 36.3562 17.9007 36.9949C18.0632 37.6208 18.3146 38.2205 18.6474 38.7759C18.9754 39.3279 19.376 39.8365 19.8276 40.3065C20.2852 40.7823 20.7964 41.2196 21.3393 41.6229C21.7821 41.9446 22.156 42.2474 22.4676 42.5413C22.7813 42.8372 23.0304 43.1236 23.2218 43.409C23.4142 43.696 23.5473 43.9821 23.6288 44.2777C23.7105 44.5732 23.7406 44.8779 23.7261 45.2008C23.7121 45.5241 23.6421 45.8265 23.5182 46.0947C23.3975 46.3601 23.2165 46.5942 22.9895 46.7784C22.7626 46.9611 22.485 47.0959 22.1595 47.1687C21.8369 47.2409 21.468 47.2535 21.0554 47.1927C20.5879 47.124 20.1166 46.9901 19.658 46.8155C19.2093 46.642 18.7735 46.4371 18.3539 46.2024C17.648 45.8087 16.9807 45.3502 16.3608 44.8328L14.9365 49.5295C15.1726 49.8301 15.4731 50.1301 15.8264 50.4202C16.1836 50.7133 16.5962 50.9968 17.0523 51.2605C17.5375 51.5401 18.0421 51.7848 18.5624 51.9927C19.111 52.2133 19.6948 52.4023 20.2998 52.5485L20.3306 52.5551L20.361 52.5618L20.3914 52.5687C20.4019 52.5709 20.4117 52.5734 20.4221 52.5753C21.712 52.8586 22.9639 52.9275 24.1308 52.7725C25.3329 52.6122 26.437 52.2149 27.391 51.5746C28.3668 50.9196 29.1759 50.0157 29.7631 48.8647C30.3574 47.6999 30.7164 46.295 30.7877 44.6658C30.8315 43.6693 30.6927 42.7647 30.4198 41.9449C30.1488 41.1314 29.747 40.4061 29.2633 39.7589Z" fill="url(#paint9_linear_114_582)"/>
<path id="Vector_17" d="M29.5619 40.0822C29.0843 39.4429 28.5277 38.8809 27.9402 38.3827C27.3611 37.8919 26.7523 37.4643 26.1565 37.085C25.7315 36.8213 25.3633 36.5667 25.0508 36.3178C24.7408 36.0704 24.4851 35.8269 24.2835 35.5837C24.0829 35.3411 23.9352 35.0975 23.8411 34.848C23.747 34.6023 23.7046 34.34 23.7165 34.0773C23.7324 33.7175 23.8126 33.392 23.9501 33.1044C24.0885 32.8163 24.2868 32.5607 24.532 32.3545C24.7811 32.1437 25.0831 31.9739 25.4308 31.8501C25.7819 31.7257 26.1809 31.6478 26.6211 31.622C27.0823 31.5956 27.5448 31.6062 28.0042 31.6538C28.4498 31.6998 28.8719 31.7767 29.2643 31.8722C29.9407 32.0372 30.5977 32.2726 31.2244 32.5744L33.3038 26.4145C32.9951 26.2573 32.6199 26.1133 32.1866 25.9917C31.7127 25.8609 31.2296 25.7652 30.7414 25.7053C30.1772 25.6352 29.6089 25.602 29.0402 25.6058C28.4088 25.6095 27.7783 25.6525 27.1523 25.7346C25.7331 25.9196 24.4518 26.3096 23.3318 26.8657C22.2425 27.407 21.2981 28.1093 20.5213 28.942C19.7534 29.7655 19.1442 30.7222 18.7237 31.7644C18.2994 32.8104 18.0458 33.9727 17.9907 35.233C17.9577 35.9866 18.0341 36.6792 18.1989 37.3181C18.3612 37.9439 18.6125 38.5434 18.9453 39.0986C19.2736 39.6512 19.6742 40.1594 20.1261 40.6292C20.5834 41.1052 21.0946 41.5429 21.6378 41.9455C22.0806 42.2672 22.4545 42.57 22.7658 42.8643C23.0798 43.1601 23.3286 43.4465 23.5204 43.732C23.7124 44.0193 23.8455 44.3048 23.9273 44.6006C24.0091 44.8961 24.0388 45.2005 24.0246 45.5241C24.0106 45.847 23.9406 46.1492 23.8167 46.4173C23.6962 46.683 23.5152 46.9171 23.2881 47.1013C23.0608 47.2844 22.7835 47.4186 22.4583 47.4917C22.1354 47.5638 21.7665 47.5764 21.3539 47.5156C20.8864 47.4469 20.4148 47.3127 19.9566 47.1385C19.508 46.9648 19.0723 46.7599 18.6527 46.5254C18.266 46.3098 17.8907 46.0746 17.5283 45.8206C17.2289 45.6119 16.939 45.3902 16.6593 45.1561L15.2354 49.8528C15.4711 50.1531 15.7716 50.453 16.125 50.7429C16.4824 51.0359 16.8948 51.3194 17.3508 51.5835C17.836 51.8629 18.3407 52.1076 18.861 52.3157C19.4354 52.5465 20.0263 52.7345 20.6287 52.8781C20.6392 52.8806 20.6493 52.8831 20.6595 52.885C20.6696 52.8875 20.6798 52.8897 20.6902 52.8916L20.7207 52.8986C22.0108 53.1818 23.2624 53.2508 24.4293 53.0955C25.6311 52.9357 26.7359 52.5384 27.6895 51.8979C28.6653 51.2429 29.4744 50.3389 30.0613 49.1883C30.6556 48.0232 31.015 46.6186 31.0863 44.9891C31.13 43.9925 30.9912 43.088 30.718 42.2682C30.4473 41.455 30.0455 40.73 29.5619 40.0822Z" fill="url(#paint10_linear_114_582)"/>
<path id="Vector_18" opacity="0.41" d="M46.1576 52.4088L45.0851 16.8136L44.9013 16.6353L45.4112 51.9157C45.4112 51.9157 40.9426 58.6553 40.2688 58.4593C39.2816 58.1723 42.1942 13.9572 42.1942 13.9572L41.8639 13.6304C41.7394 13.5284 41.5901 13.471 41.438 13.4414L39.0712 60.6736L39.0376 61.3473L39.8724 60.2993L46.1576 52.4088Z" fill="url(#paint11_linear_114_582)"/>
<path id="Vector_19" d="M34.0115 15.5141C33.6331 17.0053 33.1434 18.3945 32.8069 19.2193C32.5977 19.7307 32.83 20.2026 33.3254 20.2732C33.8204 20.3441 34.3915 19.9868 34.6007 19.4755C34.6362 19.3885 35.4766 17.3204 36.0331 14.9196L36.0398 14.8896L34.0115 15.5141Z" fill="url(#paint12_linear_114_582)"/>
<path id="Vector_20" d="M19.6975 19.9209C19.2513 20.8692 18.8038 21.696 18.4773 22.2467C18.195 22.7218 18.355 23.2225 18.8348 23.3649C19.314 23.5073 19.9317 23.237 20.2141 22.7615C20.2565 22.6897 21.1585 21.1626 21.9939 19.2139L19.6975 19.9209Z" fill="url(#paint13_linear_114_582)"/>
<path id="Vector_21" opacity="0.32" d="M39.0479 61.3463L46.1552 52.4097L55.9579 57.7126L39.0479 61.3463Z" fill="url(#paint14_linear_114_582)"/>
<path id="Vector_22" opacity="0.19" d="M39.0386 61.3498L46.067 52.4126L55.9578 57.7124L39.0386 61.3498Z" fill="url(#paint15_linear_114_582)"/>
<path id="Vector_23" opacity="0.19" d="M39.0386 61.3498L46.067 52.4126L55.9578 57.7124L39.0386 61.3498Z" fill="url(#paint16_linear_114_582)"/>
<path id="Vector_24" opacity="0.6" d="M32.1341 36.3913C35.8104 41.352 38.2723 46.7063 39.5108 51.9084L41.4383 13.4417C41.0945 13.3746 40.7433 13.4483 40.6581 13.4685L13.7925 21.7387C13.7925 21.7387 13.5352 21.8115 13.2354 21.9221C20.0267 24.2599 26.8443 29.2528 32.1341 36.3913Z" fill="url(#paint17_linear_114_582)"/>
<path id="Vector_25" d="M49.7952 17.266C49.9451 17.3955 49.9632 17.5908 49.9632 17.5908L55.8697 57.7126L46.1576 52.4091L45.0854 16.8164L49.427 17.1381C49.427 17.1381 49.6453 17.1362 49.7952 17.266Z" fill="url(#paint18_linear_114_582)"/>
<path id="Vector_26" d="M49.0831 17.353C49.0831 17.353 49.2844 17.3687 49.4343 17.4979C49.5842 17.6274 49.6194 17.8057 49.6194 17.8057L55.4305 57.4725L55.8697 57.7126L49.9632 17.5908C49.9632 17.5908 49.9451 17.3952 49.7952 17.266C49.6453 17.1365 49.427 17.1381 49.427 17.1381L45.0854 16.8164L49.0831 17.353Z" fill="url(#paint19_linear_114_582)"/>
<path id="Vector_27" d="M7.8623 55.5409L39.0383 61.3473L40.5729 28.4897L11.0975 28.7103L7.8623 55.5409Z" fill="url(#paint20_linear_114_582)"/>
<path id="Vector_28" opacity="0.3" d="M18.1292 22.2488C17.8482 23.0126 18.129 23.8168 18.7565 24.0449C19.3839 24.273 20.1204 23.8388 20.4014 23.0749C20.6824 22.3111 20.4015 21.507 19.7741 21.2788C19.1466 21.0507 18.4102 21.485 18.1292 22.2488Z" fill="white"/>
<path id="Vector_29" opacity="0.89" d="M18.1287 21.8977C17.8477 22.6615 18.1285 23.4657 18.756 23.6938C19.3834 23.922 20.1199 23.4877 20.4009 22.7239C20.6819 21.96 20.401 21.1559 19.7736 20.9277C19.1461 20.6996 18.4097 21.1339 18.1287 21.8977Z" fill="black"/>
<path id="Vector_30" d="M45.0851 16.8139L41.8639 13.6304C41.7394 13.5284 41.5901 13.471 41.438 13.4414L39.0376 61.3469L46.1573 52.4088L45.0851 16.8139Z" fill="url(#paint21_linear_114_582)"/>
<path id="Vector_31" d="M40.6582 13.4685L13.7927 21.7388C13.7927 21.7388 12.64 22.0642 12.3691 22.3872C12.3482 22.4126 12.3292 22.4395 12.312 22.4675L39.4064 15.0196C39.6276 14.9695 40.18 14.7631 40.0957 16.3237L38.4534 61.2386L39.0385 61.3473L41.4388 13.4417C41.0946 13.3746 40.7435 13.448 40.6582 13.4685Z" fill="url(#paint22_linear_114_582)"/>
<path id="Vector_32" d="M40.6582 13.4685L13.7927 21.7388C13.7927 21.7388 12.64 22.0642 12.3691 22.3872C12.3482 22.4126 12.3292 22.4395 12.312 22.4675L18.5893 20.7419L40.1645 14.1002C40.2494 14.0801 40.6003 14.0063 40.9447 14.0735L38.5802 61.2619L39.0385 61.3473L41.4388 13.4417C41.0946 13.3746 40.7435 13.448 40.6582 13.4685Z" fill="url(#paint23_linear_114_582)"/>
<path id="Vector_33" opacity="0.32" d="M47.583 53.186L46.1549 52.4097L39.0381 61.3466L39.432 61.2615C39.432 61.2615 45.7141 53.2389 46.2814 52.9771C46.6607 52.8022 47.583 53.186 47.583 53.186Z" fill="url(#paint24_linear_114_582)"/>
<path id="Vector_34" opacity="0.57" d="M39.0381 61.3472L46.1552 52.4097C46.1552 52.4097 41.6356 57.2939 39.0381 61.3472Z" fill="url(#paint25_linear_114_582)"/>
<path id="Vector_35" opacity="0.46" d="M55.958 57.7126L46.1553 52.4097C46.1553 52.4097 47.2746 52.5978 55.958 57.7126Z" fill="url(#paint26_linear_114_582)"/>
<path id="Vector_36" opacity="0.3" d="M32.3523 19.0007C32.0713 19.7646 32.3522 20.5687 32.9796 20.7968C33.6071 21.025 34.3435 20.5907 34.6245 19.8269C34.9055 19.0631 34.6247 18.2589 33.9972 18.0308C33.3698 17.8026 32.6333 18.2369 32.3523 19.0007Z" fill="white"/>
<path id="Vector_37" opacity="0.89" d="M32.3533 18.6506C32.0723 19.4145 32.3531 20.2186 32.9806 20.4467C33.608 20.6749 34.3445 20.2406 34.6255 19.4768C34.9065 18.713 34.6256 17.9088 33.9982 17.6807C33.3707 17.4525 32.6343 17.8868 32.3533 18.6506Z" fill="black"/>
<path id="Vector_38" d="M19.2077 23.3705C19.0729 23.3708 18.9395 23.3421 18.8167 23.2866C18.694 23.231 18.5847 23.1499 18.4963 23.0486C18.4078 22.9474 18.3424 22.8284 18.3043 22.6997C18.2663 22.5711 18.2565 22.4358 18.2757 22.3031C18.3479 21.8031 20.13 10.0267 27.5514 7.34834C29.4244 6.6722 30.99 6.82438 32.2041 7.80015C33.6636 8.97378 34.4685 11.2905 34.5966 14.6863C34.6872 17.0871 34.4042 19.1555 34.3918 19.2422C34.3568 19.487 34.2256 19.7081 34.027 19.857C33.8284 20.0059 33.5785 20.0705 33.3321 20.0366C33.0856 20.0027 32.8628 19.8731 32.7122 19.6762C32.5617 19.4793 32.4958 19.2311 32.529 18.986C32.8243 16.8527 33.1286 10.9471 31.0204 9.25356C30.3454 8.71133 29.4203 8.66312 28.1928 9.10579C21.8319 11.4014 20.1534 22.4578 20.1373 22.5693C20.1049 22.7916 19.9932 22.9948 19.8225 23.1419C19.6519 23.289 19.4336 23.3702 19.2077 23.3705Z" fill="#595961"/>
<path id="Vector_39" opacity="0.46" d="M31.8648 7.83897C30.7622 6.95268 29.2942 6.81594 27.5543 7.44419C24.5391 8.53212 22.0167 11.4308 20.2594 15.8263C18.9575 19.0822 18.5249 21.9963 18.5071 22.1191C18.4846 22.2735 18.5242 22.4276 18.6187 22.5524C18.6732 22.6254 18.7442 22.6847 18.826 22.7254C18.9078 22.7661 18.9981 22.7872 19.0896 22.7868C19.3796 22.7868 19.6294 22.5716 19.6709 22.2858C19.6874 22.1724 21.3921 10.9118 27.9556 8.54283C29.2835 8.06361 30.3578 8.13041 31.1254 8.74763C33.3654 10.5479 33.0656 16.6146 32.7614 18.8005C32.7402 18.9541 32.7812 19.1098 32.8754 19.2333C32.9696 19.3568 33.1092 19.4381 33.2637 19.4593C33.4179 19.4796 33.5738 19.4386 33.6978 19.3452C33.8217 19.2519 33.9035 19.1136 33.9254 18.9606C33.9739 18.6131 35.0733 10.4184 31.8648 7.83897Z" fill="#B2B2C2"/>
<path id="Vector_40" opacity="0.81" d="M19.0895 22.4357C19.0389 22.4358 18.9889 22.4251 18.9428 22.4043C18.8968 22.3834 18.8557 22.353 18.8226 22.315C18.7894 22.277 18.7649 22.2323 18.7506 22.1841C18.7363 22.1358 18.7327 22.085 18.7399 22.0352C18.7574 21.9143 19.183 19.0345 20.4776 15.7956C22.2096 11.4638 24.6842 8.61144 27.6344 7.54682C29.3005 6.94504 30.674 7.0654 31.7167 7.90379C34.8235 10.4013 33.7399 18.4693 33.6924 18.8115C33.6771 18.9014 33.6272 18.9818 33.5532 19.0358C33.4793 19.0897 33.3871 19.1129 33.2962 19.1004C33.2054 19.0879 33.123 19.0407 33.0665 18.9688C33.0101 18.8969 32.984 18.806 32.9939 18.7154C33.005 18.6353 34.0717 10.6981 31.2733 8.44886C30.4363 7.77587 29.2929 7.69427 27.8753 8.20594C21.1793 10.6225 19.4546 22.0204 19.4381 22.1351C19.4128 22.3097 19.2619 22.4357 19.0895 22.4357Z" fill="#B2B2C2"/>
<path id="Vector_41" opacity="0.42" d="M23.2467 13.4018C23.5956 12.936 23.9221 12.454 24.2251 11.9575C24.0973 12.122 23.1824 13.7644 21.2777 13.5124C21.2777 13.5124 22.3717 13.8574 23.2467 13.4018ZM22.1872 15.4381C22.477 14.9338 22.7425 14.4162 22.983 13.887C22.8762 14.0656 22.2598 15.7708 20.2461 15.784C20.2461 15.7837 21.3737 15.9954 22.1872 15.4381ZM21.3712 17.4948C21.611 16.9652 21.8257 16.4247 22.0145 15.8751C21.9252 16.0632 21.5769 17.7926 19.4722 18.0235C19.4719 18.0235 20.615 18.1269 21.3712 17.4948Z" fill="#595961"/>
<path id="Vector_42" opacity="0.62" d="M34.0289 11.3801C33.8768 10.8194 33.6982 10.2661 33.4936 9.72219C33.5443 9.92384 34.1915 11.698 32.8972 12.986C32.8972 12.986 33.847 12.3458 34.0289 11.3801ZM32.7948 8.52745C32.3673 8.13166 31.9212 7.7562 31.458 7.40234C31.6085 7.54665 33.1022 8.71114 32.6896 10.4853C32.6896 10.4853 33.1545 9.44241 32.7948 8.52745ZM34.349 14.2664C34.3075 13.6871 34.2386 13.1101 34.1423 12.5373C34.1531 12.745 34.4479 14.6092 32.9298 15.6278C32.9298 15.6275 33.9852 15.1795 34.349 14.2664ZM34.5055 17.2101C34.5382 16.6288 34.5404 16.0462 34.5179 15.469C34.5027 15.6764 34.5604 17.5627 32.9263 18.3844C32.926 18.3844 34.0295 18.0712 34.5055 17.2101Z" fill="#595961"/>
<path id="Vector_43" opacity="0.42" d="M20.6468 19.8097C20.8224 19.2558 20.9718 18.6939 21.0943 18.126C21.0278 18.3229 20.7302 20.1185 18.8232 20.5565C18.8236 20.5565 19.9705 20.5262 20.6468 19.8097ZM24.4752 11.6772C24.9105 11.2898 25.327 10.8821 25.7236 10.4557C25.5651 10.5915 24.2962 11.8697 22.5236 11.3952C22.5236 11.3955 23.5261 11.9504 24.4752 11.6772ZM25.9058 10.2452C26.4019 9.93859 26.8832 9.60877 27.3478 9.25684C27.1685 9.36333 25.6957 10.4043 24.0325 9.63208C24.0328 9.63208 24.9237 10.3511 25.9058 10.2452Z" fill="#595961"/>
<path id="Vector_44" opacity="0.62" d="M27.8148 9.19282C28.3776 9.03709 28.9328 8.8551 29.4784 8.64744C29.2762 8.69942 27.5686 9.28671 26.1909 8.08094C26.1909 8.08094 26.8422 9.01985 27.8148 9.19282ZM29.4555 8.62727C29.8957 8.69092 30.3388 8.73156 30.7793 8.7533C30.6225 8.72778 29.2552 8.61751 28.6683 7.36133C28.6683 7.36133 28.8328 8.2117 29.4555 8.62727ZM31.1676 9.31507C31.4367 9.66542 31.7223 10.0029 32.0236 10.3264C31.9294 10.1991 31.0316 9.16888 31.4978 7.86323C31.4978 7.86323 31.0158 8.58474 31.1676 9.31507Z" fill="#595961"/>
<path id="Vector_45" d="M33.3495 18.6209C33.3968 18.2828 34.4673 10.3094 31.4379 7.87361C30.8649 7.41298 30.1778 7.1792 29.3962 7.1792C28.828 7.1792 28.1989 7.30239 27.5267 7.54499C24.6253 8.59228 22.1866 11.4099 20.4736 15.6936C19.1897 18.9051 18.7638 21.7732 18.7464 21.8935C18.7428 21.9185 18.7447 21.9439 18.7519 21.968C18.7591 21.9921 18.7714 22.0145 18.788 22.0335C18.8046 22.0525 18.8252 22.0677 18.8482 22.0781C18.8713 22.0885 18.8963 22.0939 18.9216 22.0939C19.0085 22.0939 19.0833 22.029 19.0956 21.9436C19.1124 21.8274 20.8545 10.3258 27.6468 7.87456C29.1196 7.34272 30.3337 7.43661 31.216 8.14583C34.0937 10.4587 33.0117 18.4921 33.0003 18.573C32.997 18.5978 32.9991 18.6229 33.0063 18.6468C33.0135 18.6707 33.0258 18.6927 33.0423 18.7115C33.0588 18.7303 33.0791 18.7454 33.1019 18.7558C33.1247 18.7662 33.1495 18.7717 33.1746 18.7718C33.2172 18.772 33.2584 18.7568 33.2906 18.729C33.3228 18.7013 33.3437 18.6629 33.3495 18.6209Z" fill="url(#paint27_linear_114_582)"/>
<path id="Vector_46" d="M34.5969 14.6864C34.4686 11.2905 33.6639 8.97384 32.2045 7.80021C31.4128 7.16377 30.4706 6.88021 29.3921 6.94575C30.2278 6.99899 30.9723 7.28256 31.6169 7.80021C33.076 8.97384 33.8813 11.2905 34.009 14.6864C34.0997 17.0872 33.8167 19.1556 33.8049 19.2422C33.7806 19.4155 33.7079 19.5784 33.5951 19.7126C33.4823 19.8468 33.3338 19.9468 33.1666 20.0012C33.2975 20.0441 33.4362 20.0578 33.5729 20.0415C33.7097 20.0252 33.8411 19.9792 33.958 19.9068C34.075 19.8344 34.1744 19.7374 34.2495 19.6225C34.3245 19.5077 34.3732 19.3779 34.3922 19.2422C34.4045 19.1553 34.6876 17.0872 34.5969 14.6864Z" fill="url(#paint28_linear_114_582)"/>
<path id="Vector_47" d="M27.6057 9.1061C21.2444 11.4017 19.5659 22.4581 19.5498 22.5696C19.5247 22.7417 19.4518 22.9033 19.3393 23.0365C19.2268 23.1696 19.0792 23.2689 18.9131 23.3233C19.0083 23.3546 19.1079 23.3708 19.2081 23.3711C19.434 23.3708 19.6523 23.2897 19.8229 23.1426C19.9936 22.9954 20.1053 22.7922 20.1377 22.5699C20.1538 22.4584 21.8323 11.4023 28.1935 9.10642C28.623 8.9514 29.0147 8.85783 29.3722 8.82348C28.8695 8.76709 28.2842 8.86098 27.6057 9.1061Z" fill="url(#paint29_linear_114_582)"/>
<g id="Group" opacity="0.45">
<path id="Vector_48" d="M19.1111 22.06C18.7876 21.9428 18.5575 21.6718 18.4475 21.3325C18.3822 21.6546 18.3249 21.9783 18.2757 22.3032C18.2565 22.436 18.2662 22.5713 18.3042 22.6999C18.3423 22.8286 18.4077 22.9476 18.4962 23.0489C18.5846 23.1502 18.6939 23.2313 18.8167 23.2869C18.9395 23.3424 19.0729 23.371 19.2078 23.3707C19.4337 23.3704 19.6519 23.2892 19.8226 23.1421C19.9933 22.995 20.105 22.7917 20.1373 22.5695C20.1784 22.3095 20.2252 22.0505 20.2777 21.7925C19.9383 22.0862 19.5032 22.2027 19.1111 22.06Z" fill="url(#paint30_linear_114_582)"/>
<path id="Vector_49" d="M33.2364 18.5246C32.9693 18.4279 32.7655 18.226 32.6406 17.9673C32.6123 18.3077 32.5752 18.6474 32.5294 18.9859C32.5125 19.1075 32.5198 19.2312 32.551 19.35C32.5822 19.4688 32.6366 19.5803 32.7111 19.6782C32.7856 19.7761 32.8788 19.8584 32.9853 19.9205C33.0919 19.9825 33.2097 20.0231 33.332 20.04C33.4543 20.0568 33.5788 20.0495 33.6982 20.0185C33.8177 19.9875 33.9299 19.9334 34.0283 19.8593C34.1268 19.7852 34.2096 19.6926 34.272 19.5867C34.3345 19.4808 34.3753 19.3637 34.3922 19.2421C34.3976 19.2046 34.4531 18.7984 34.5073 18.1573C34.1558 18.5231 33.67 18.6825 33.2364 18.5246Z" fill="url(#paint31_linear_114_582)"/>
</g>
<path id="Vector_50" d="M65.5843 44.7707C66.7703 45.3835 68.9047 46.2323 70.9441 46.1854C72.7937 46.1854 73.7898 45.1951 73.7898 43.9689C73.7898 42.7905 73.0783 41.9887 71.0861 40.8569C68.6198 39.4423 66.7699 37.4621 66.7699 34.8687C66.7699 30.2946 70.7064 27.0412 76.4456 27.0412C78.9594 27.0412 80.9041 27.5128 81.9474 28.1256L80.4296 32.7468C79.5286 32.3224 78.0581 31.8507 76.3505 31.8507C74.5006 31.8507 73.315 32.6995 73.315 34.0196C73.315 35.0571 74.1688 35.8117 75.8289 36.7075C78.3902 38.1691 80.5244 40.1499 80.5244 42.932C80.5244 48.1183 76.3033 51.0418 70.4218 50.9946C67.7182 50.9479 65.2043 50.24 63.9712 49.3915L65.5843 44.7707ZM81.8529 50.5705L88.2085 17.3279H94.7539L92.2401 30.3891L92.3352 30.436C94.09 28.3613 96.3668 26.9939 99.2599 26.9939C102.675 26.9939 104.62 29.2101 104.62 32.8879C104.62 34.0196 104.43 35.7172 104.145 37.1322L101.584 50.5705H95.0388L97.5051 37.556C97.695 36.6599 97.7897 35.5758 97.7897 34.6797C97.7897 33.265 97.2202 32.2748 95.75 32.2748C93.6631 32.2748 91.4338 34.9154 90.5801 39.2063L88.3984 50.5702L81.8529 50.5705ZM128.288 36.0947C128.288 44.1579 123.07 51.0418 115.339 51.0418C109.458 51.0418 106.328 46.9866 106.328 41.9411C106.328 34.0669 111.545 26.9939 119.418 26.9939C125.537 26.9942 128.288 31.4263 128.288 36.0947ZM113.015 41.8002C113.015 44.1576 113.964 46.0439 116.193 46.0439C119.655 46.0439 121.6 39.9142 121.6 35.9056C121.6 33.9727 120.841 31.9922 118.517 31.9922C114.959 31.9922 113.015 38.0749 113.015 41.8002ZM126.723 59.8121L131.276 36.0005C131.798 33.3126 132.32 29.729 132.604 27.3714H138.391L138.011 30.8608H138.106C139.861 28.4089 142.422 26.9942 145.031 26.9942C149.821 26.9942 151.766 30.908 151.766 35.2928C151.766 43.2146 146.739 51.0418 139.055 51.0418C137.442 51.0418 135.972 50.6647 135.213 50.1934H135.071L133.268 59.8121H126.723ZM136.066 45.1954C136.778 45.761 137.584 46.1381 138.77 46.1381C142.422 46.1381 144.936 40.1499 144.936 35.9532C144.936 34.2087 144.319 32.3696 142.328 32.3696C140.051 32.3696 137.917 35.0571 137.158 39.1124L136.066 45.1954ZM151.956 50.5705L156.368 27.5128H162.96L158.502 50.5705H151.956ZM160.446 24.6838C158.597 24.6838 157.363 23.3637 157.363 21.4301C157.363 19.3081 159.023 17.6578 161.11 17.6578C163.102 17.6578 164.383 19.0252 164.383 20.9115C164.336 23.3161 162.58 24.6838 160.541 24.6838H160.446ZM164.193 50.5705L167.655 32.3693H164.62L165.568 27.4656H168.604L168.794 26.3811C169.315 23.646 170.359 20.9115 172.588 19.0252C174.343 17.5163 176.667 16.856 178.991 16.856C180.604 16.856 181.79 17.0919 182.549 17.4218L181.268 22.5143C180.699 22.3255 180.035 22.1844 179.181 22.1844C176.999 22.1844 175.671 24.1649 175.292 26.3811L175.055 27.4656H179.608L178.707 32.3693H174.201L170.738 50.5705H164.193ZM187.718 27.5128L188.762 37.8865C189.046 40.1965 189.236 41.8469 189.331 43.3557H189.426C189.947 41.7999 190.422 40.338 191.371 37.8389L195.354 27.5125H202.185L194.169 44.5814C191.323 50.4287 188.572 54.7196 185.584 57.5017C183.26 59.6703 180.509 60.7551 179.181 61.0383L177.378 55.5209C178.469 55.1437 179.845 54.5782 181.078 53.6821C182.596 52.6446 183.877 51.2306 184.636 49.7683C184.825 49.4385 184.873 49.1555 184.778 48.6842L180.841 27.5125L187.718 27.5128Z" fill="white"/>
</g>
<defs>
<linearGradient id="paint0_linear_114_582" x1="23.4503" y1="47.642" x2="23.4503" y2="51.1454" gradientUnits="userSpaceOnUse">
<stop stop-opacity="0"/>
<stop offset="1" stop-opacity="0.52"/>
</linearGradient>
<linearGradient id="paint1_linear_114_582" x1="47.1953" y1="46.5943" x2="47.1953" y2="50.3954" gradientUnits="userSpaceOnUse">
<stop stop-opacity="0"/>
<stop offset="1" stop-opacity="0.52"/>
</linearGradient>
<linearGradient id="paint2_linear_114_582" x1="51.2069" y1="59.6538" x2="50.4463" y2="49.7363" gradientUnits="userSpaceOnUse">
<stop stop-opacity="0"/>
<stop offset="1" stop-opacity="0.4"/>
</linearGradient>
<linearGradient id="paint3_linear_114_582" x1="32.8106" y1="9.30762" x2="31.8914" y2="22.276" gradientUnits="userSpaceOnUse">
<stop stop-color="white" stop-opacity="0.65"/>
<stop offset="1" stop-color="white" stop-opacity="0"/>
</linearGradient>
<linearGradient id="paint4_linear_114_582" x1="36.6718" y1="13.3194" x2="43.4056" y2="19.5156" gradientUnits="userSpaceOnUse">
<stop stop-opacity="0"/>
<stop offset="1" stop-opacity="0.4"/>
</linearGradient>
<linearGradient id="paint5_linear_114_582" x1="28.2081" y1="20.0697" x2="35.3135" y2="13.1616" gradientUnits="userSpaceOnUse">
<stop stop-opacity="0"/>
<stop offset="1" stop-opacity="0.4"/>
</linearGradient>
<linearGradient id="paint6_linear_114_582" x1="30.5291" y1="12.1206" x2="33.6526" y2="26.1886" gradientUnits="userSpaceOnUse">
<stop stop-opacity="0"/>
<stop offset="1" stop-opacity="0.4"/>
</linearGradient>
<linearGradient id="paint7_linear_114_582" x1="36.3015" y1="15.9051" x2="8.9023" y2="48.7905" gradientUnits="userSpaceOnUse">
<stop stop-color="#B8D26E"/>
<stop offset="1" stop-color="#7FB525"/>
</linearGradient>
<linearGradient id="paint8_linear_114_582" x1="61.5044" y1="34.0887" x2="45.7198" y2="34.3933" gradientUnits="userSpaceOnUse">
<stop stop-color="#B4E034"/>
<stop offset="1" stop-color="#60A927"/>
</linearGradient>
<linearGradient id="paint9_linear_114_582" x1="24.6398" y1="36.8621" x2="12.6654" y2="67.4375" gradientUnits="userSpaceOnUse">
<stop stop-color="#1D1D1B" stop-opacity="0.5"/>
<stop offset="0.09" stop-color="#1D1D1B" stop-opacity="0.455"/>
<stop offset="1" stop-color="#1D1D1B" stop-opacity="0"/>
</linearGradient>
<linearGradient id="paint10_linear_114_582" x1="24.9381" y1="37.1853" x2="12.9633" y2="67.7602" gradientUnits="userSpaceOnUse">
<stop stop-color="white"/>
<stop offset="1" stop-color="#CECEEB"/>
</linearGradient>
<linearGradient id="paint11_linear_114_582" x1="32.5228" y1="38.1129" x2="53.0253" y2="38.0695" gradientUnits="userSpaceOnUse">
<stop stop-color="#1D1D1B" stop-opacity="0.5"/>
<stop offset="0.038" stop-color="#1D1D1B" stop-opacity="0.484"/>
<stop offset="0.424" stop-color="#1D1D1B" stop-opacity="0.319"/>
<stop offset="1" stop-color="#1D1D1B" stop-opacity="0"/>
</linearGradient>
<linearGradient id="paint12_linear_114_582" x1="36.1457" y1="14.7225" x2="32.8099" y2="16.6298" gradientUnits="userSpaceOnUse">
<stop stop-opacity="0"/>
<stop offset="1" stop-opacity="0.4"/>
</linearGradient>
<linearGradient id="paint13_linear_114_582" x1="21.8294" y1="19.1343" x2="19.5319" y2="21.2086" gradientUnits="userSpaceOnUse">
<stop stop-opacity="0"/>
<stop offset="1" stop-opacity="0.4"/>
</linearGradient>
<linearGradient id="paint14_linear_114_582" x1="46.9787" y1="57.5214" x2="47.2037" y2="60.5838" gradientUnits="userSpaceOnUse">
<stop stop-opacity="0"/>
<stop offset="1" stop-opacity="0.4"/>
</linearGradient>
<linearGradient id="paint15_linear_114_582" x1="45.9247" y1="52.779" x2="46.4401" y2="60.7288" gradientUnits="userSpaceOnUse">
<stop stop-color="white" stop-opacity="0.5"/>
<stop offset="0.09" stop-color="white" stop-opacity="0.455"/>
<stop offset="1" stop-color="white" stop-opacity="0"/>
</linearGradient>
<linearGradient id="paint16_linear_114_582" x1="45.2141" y1="53.6549" x2="46.133" y2="62.1504" gradientUnits="userSpaceOnUse">
<stop stop-opacity="0"/>
<stop offset="1" stop-opacity="0.4"/>
</linearGradient>
<linearGradient id="paint17_linear_114_582" x1="41.8614" y1="19.5347" x2="16.7907" y2="34.6255" gradientUnits="userSpaceOnUse">
<stop stop-color="white" stop-opacity="0.5"/>
<stop offset="1" stop-color="white" stop-opacity="0"/>
</linearGradient>
<linearGradient id="paint18_linear_114_582" x1="38.4963" y1="36.8964" x2="61.0907" y2="36.9448" gradientUnits="userSpaceOnUse">
<stop stop-color="#1D1D1B" stop-opacity="0.5"/>
<stop offset="0.09" stop-color="#1D1D1B" stop-opacity="0.455"/>
<stop offset="1" stop-color="#1D1D1B" stop-opacity="0"/>
</linearGradient>
<linearGradient id="paint19_linear_114_582" x1="55.4383" y1="18.9839" x2="52.2409" y2="19.8062" gradientUnits="userSpaceOnUse">
<stop stop-color="white" stop-opacity="0.4"/>
<stop offset="1" stop-color="white" stop-opacity="0"/>
</linearGradient>
<linearGradient id="paint20_linear_114_582" x1="21.9279" y1="60.9201" x2="23.4786" y2="53.2013" gradientUnits="userSpaceOnUse">
<stop stop-color="#1D1D1B" stop-opacity="0.5"/>
<stop offset="0.09" stop-color="#1D1D1B" stop-opacity="0.455"/>
<stop offset="1" stop-color="#1D1D1B" stop-opacity="0"/>
</linearGradient>
<linearGradient id="paint21_linear_114_582" x1="35.4991" y1="37.2026" x2="56.0757" y2="37.2205" gradientUnits="userSpaceOnUse">
<stop stop-color="#1D1D1B" stop-opacity="0.5"/>
<stop offset="1" stop-color="#1D1D1B" stop-opacity="0"/>
</linearGradient>
<linearGradient id="paint22_linear_114_582" x1="28.2735" y1="13.6058" x2="19.0808" y2="50.4918" gradientUnits="userSpaceOnUse">
<stop stop-color="white" stop-opacity="0.5"/>
<stop offset="1" stop-color="white" stop-opacity="0"/>
</linearGradient>
<linearGradient id="paint23_linear_114_582" x1="28.2735" y1="13.6058" x2="19.0808" y2="50.4918" gradientUnits="userSpaceOnUse">
<stop stop-color="white" stop-opacity="0.5"/>
<stop offset="1" stop-color="white" stop-opacity="0"/>
</linearGradient>
<linearGradient id="paint24_linear_114_582" x1="46.1218" y1="52.8565" x2="38.672" y2="63.5584" gradientUnits="userSpaceOnUse">
<stop stop-color="white" stop-opacity="0.5"/>
<stop offset="0.09" stop-color="white" stop-opacity="0.455"/>
<stop offset="1" stop-color="white" stop-opacity="0"/>
</linearGradient>
<linearGradient id="paint25_linear_114_582" x1="43.9489" y1="51.8913" x2="43.2284" y2="53.5872" gradientUnits="userSpaceOnUse">
<stop stop-opacity="0"/>
<stop offset="1" stop-opacity="0.4"/>
</linearGradient>
<linearGradient id="paint26_linear_114_582" x1="51.3899" y1="53.8309" x2="51.355" y2="54.2827" gradientUnits="userSpaceOnUse">
<stop stop-opacity="0"/>
<stop offset="1" stop-opacity="0.4"/>
</linearGradient>
<linearGradient id="paint27_linear_114_582" x1="29.0341" y1="7.67138" x2="25.8855" y2="20.6387" gradientUnits="userSpaceOnUse">
<stop stop-color="white" stop-opacity="0.65"/>
<stop offset="1" stop-color="white" stop-opacity="0"/>
</linearGradient>
<linearGradient id="paint28_linear_114_582" x1="32.1862" y1="11.6829" x2="37.8642" y2="17.722" gradientUnits="userSpaceOnUse">
<stop stop-opacity="0"/>
<stop offset="1" stop-opacity="0.4"/>
</linearGradient>
<linearGradient id="paint29_linear_114_582" x1="22.5215" y1="18.4341" x2="30.3503" y2="10.0231" gradientUnits="userSpaceOnUse">
<stop stop-opacity="0"/>
<stop offset="1" stop-opacity="0.4"/>
</linearGradient>
<linearGradient id="paint30_linear_114_582" x1="18.9279" y1="18.2202" x2="19.2707" y2="22.0227" gradientUnits="userSpaceOnUse">
<stop stop-opacity="0"/>
<stop offset="1" stop-opacity="0.4"/>
</linearGradient>
<linearGradient id="paint31_linear_114_582" x1="33.3649" y1="16.9682" x2="33.731" y2="20.7679" gradientUnits="userSpaceOnUse">
<stop stop-opacity="0"/>
<stop offset="1" stop-opacity="0.4"/>
</linearGradient>
</defs>
</svg>
