<svg width="74" height="57" viewBox="0 0 74 57" fill="none" xmlns="http://www.w3.org/2000/svg">
<g id="woo logo" clip-path="url(#clip0_114_644)">
<path id="Vector" d="M7.68498 8.62354C6.79298 8.62393 5.90984 8.80284 5.08619 9.14999C4.26255 9.49714 3.51462 10.0057 2.8853 10.6465C2.25598 11.2873 1.75764 12.0478 1.41888 12.8842C1.08011 13.7207 0.907585 14.6167 0.911188 15.521V38.5134C0.911188 42.3244 3.9559 45.4108 7.7154 45.4108H35.8599L48.7231 52.672L45.7971 45.4108H67.107C70.8665 45.4108 73.9112 42.3274 73.9112 38.5134V15.521C73.9112 11.71 70.8695 8.62354 67.107 8.62354H7.68498ZM32.2616 12.6658C32.8517 12.672 33.3931 12.8847 33.8889 13.2825C34.1558 13.4866 34.3765 13.7463 34.536 14.0441C34.6955 14.342 34.7902 14.671 34.8136 15.0091C34.8535 15.5112 34.75 16.0142 34.5155 16.4583C33.3536 18.6382 32.3985 22.2981 31.6229 27.3794C30.8746 32.3128 30.607 36.1546 30.7864 38.908C30.8473 39.6635 30.7256 40.3264 30.4275 40.903C30.2804 41.2085 30.0571 41.4697 29.7796 41.6606C29.5022 41.8515 29.1802 41.9656 28.8459 41.9914C28.0702 42.053 27.2642 41.6892 26.4886 40.8752C23.7115 37.9985 21.5033 33.7034 19.8912 27.9869C18.434 30.8778 17.0013 33.7814 15.5933 36.6973C13.8352 40.1198 12.3418 41.8711 11.0886 41.9636C10.2826 42.0253 9.59819 41.3284 8.99898 39.8762C7.47815 35.911 5.83565 28.2582 4.07452 16.9115C3.98327 16.1253 4.13536 15.4315 4.55206 14.8858C4.96877 14.3123 5.5984 14.0101 6.43181 13.9485C7.95265 13.8251 8.81952 14.5528 9.0294 16.1253C9.95406 22.4492 10.97 27.805 12.0437 32.1895L18.5802 19.5786C19.1764 18.4285 19.9216 17.8211 20.8189 17.7625C22.1299 17.67 22.9359 18.518 23.2644 20.3032C24.0126 24.327 24.9677 27.7464 26.0992 30.6509C26.8749 22.9672 28.1889 17.4295 30.0382 14.0101C30.4884 13.1653 31.1423 12.7398 32.0092 12.6812C32.0941 12.6729 32.1794 12.6688 32.2647 12.6689L32.2616 12.6658ZM43.6192 15.9434C44.1272 15.9434 44.6625 16.005 45.2313 16.1284C47.3209 16.5785 48.93 17.7317 50.0067 19.6341C50.9618 21.2683 51.4363 23.2355 51.4363 25.5942C51.4363 28.7115 50.6637 31.5543 49.1094 34.1566C47.3209 37.1814 44.991 38.6953 42.0984 38.6953C41.5904 38.6953 41.0521 38.6336 40.4863 38.5134C38.3663 38.0601 36.7846 36.91 35.7109 35.0045C34.7558 33.3395 34.2783 31.3446 34.2783 29.0136C34.2783 25.8995 35.0539 23.0535 36.6051 20.482C38.4271 17.4573 40.754 15.9434 43.6192 15.9434ZM62.3316 15.9434C62.8395 15.9434 63.3749 16.005 63.9436 16.1284C66.0606 16.5785 67.6423 17.7317 68.7191 19.6341C69.6741 21.2683 70.1487 23.2355 70.1487 25.5942C70.1487 28.7115 69.3761 31.5543 67.8218 34.1566C66.0333 37.1814 63.7034 38.6953 60.8107 38.6953C60.3028 38.6953 59.7644 38.6336 59.1987 38.5134C57.0786 38.0601 55.4969 36.91 54.4232 35.0045C53.4682 33.3395 52.9906 31.3446 52.9906 29.0136C52.9906 25.8995 53.7662 23.0535 55.3175 20.482C57.1394 17.4573 59.4663 15.9434 62.3316 15.9434ZM43.7561 21.0155C42.8223 21.0093 41.9129 21.6352 41.0521 22.9333C40.2892 24.0125 39.7511 25.2378 39.4704 26.5346C39.3183 27.2284 39.2605 27.9838 39.2605 28.7423C39.2605 29.618 39.443 30.5584 39.7989 31.4957C40.246 32.6735 40.8422 33.3118 41.56 33.4629C42.3052 33.614 43.1113 33.2779 43.9781 32.4916C45.0823 31.4957 45.8275 30.0126 46.2442 28.0146C46.3963 27.3209 46.4541 26.5655 46.4541 25.7761C46.444 24.8328 46.2625 23.8994 45.9187 23.0227C45.4686 21.8449 44.8724 21.2097 44.1546 21.0586C44.0233 21.0318 43.89 21.0174 43.7561 21.0155ZM62.4684 21.0155C61.5347 21.0093 60.6252 21.6352 59.7644 22.9333C59.0016 24.0125 58.4634 25.2378 58.1827 26.5346C58.0337 27.2284 57.9729 27.9838 57.9729 28.7423C57.9729 29.618 58.1554 30.5584 58.5112 31.4957C58.9584 32.6735 59.5576 33.3118 60.2724 33.4629C61.0176 33.614 61.8236 33.2779 62.6905 32.4916C63.7946 31.4957 64.5398 30.0126 64.9565 28.0146C65.0782 27.3209 65.1694 26.5655 65.1694 25.7761C65.1584 24.8326 64.9759 23.8992 64.6311 23.0227C64.1809 21.8449 63.5847 21.2097 62.8669 21.0586C62.7357 21.0318 62.6023 21.0174 62.4684 21.0155Z" fill="white"/>
</g>
<defs>
<clipPath id="clip0_114_644">
<rect width="73" height="56" fill="white" transform="translate(0.911133 0.647949)"/>
</clipPath>
</defs>
</svg>
