<svg width="1440" height="6560" viewBox="0 0 1440 6560" fill="none" xmlns="http://www.w3.org/2000/svg">
<line x1="119.5" y1="-2.18557e-08" x2="119.5" y2="7391" stroke="white" stroke-opacity="0.09"/>
<line x1="239.5" y1="-2.18557e-08" x2="239.5" y2="7391" stroke="white" stroke-opacity="0.09"/>
<line x1="359.5" y1="-2.18557e-08" x2="359.5" y2="7391" stroke="white" stroke-opacity="0.09"/>
<line x1="479.5" y1="-2.18557e-08" x2="479.5" y2="7391" stroke="white" stroke-opacity="0.09"/>
<line x1="599.5" y1="-2.18557e-08" x2="599.5" y2="7391" stroke="white" stroke-opacity="0.09"/>
<line x1="719.5" y1="-2.18557e-08" x2="719.5" y2="7391" stroke="white" stroke-opacity="0.09"/>
<line x1="839.5" y1="-2.18557e-08" x2="839.5" y2="7391" stroke="white" stroke-opacity="0.09"/>
<line x1="959.5" y1="-2.18557e-08" x2="959.5" y2="7391" stroke="white" stroke-opacity="0.09"/>
<line x1="1079.5" y1="-2.18557e-08" x2="1079.5" y2="7391" stroke="white" stroke-opacity="0.09"/>
<line x1="1199.5" y1="-2.18557e-08" x2="1199.5" y2="7391" stroke="white" stroke-opacity="0.09"/>
<line x1="1319.5" y1="-2.18557e-08" x2="1319.5" y2="7391" stroke="white" stroke-opacity="0.09"/>
<line x1="1439.5" y1="-2.18557e-08" x2="1439.5" y2="7391" stroke="white" stroke-opacity="0.09"/>
<line x1="0.5" y1="-2.18557e-08" x2="0.500323" y2="7391" stroke="white" stroke-opacity="0.09"/>
</svg>
